<svg width="300" height="126" viewBox="0 0 300 126" fill="none" xmlns="http://www.w3.org/2000/svg">
<path d="M31.5635 71.7998C32.3692 72.1066 33.1526 72.4689 33.908 72.8843C34.6721 73.3054 35.4042 73.782 36.0984 74.3103C36.8115 74.8207 37.4713 75.4016 38.0677 76.0442C38.6851 76.6842 39.178 77.4334 39.5213 78.2535L39.0055 78.153C39.3644 77.8069 39.7496 77.489 40.1577 77.2024C40.558 76.9139 40.984 76.6629 41.4304 76.4526C41.8778 76.2411 42.3506 76.0881 42.8371 75.9974C43.3217 75.9134 43.8181 75.927 44.2974 76.0375C43.8232 76.024 43.35 76.0896 42.8974 76.2317C42.4567 76.3879 42.0326 76.5875 41.6314 76.8275C40.8355 77.3165 40.106 77.906 39.461 78.5815L39.1328 78.9296L38.9453 78.4744C38.611 77.7365 38.1585 77.0582 37.6055 76.466C37.0398 75.8473 36.4261 75.2743 35.7702 74.7522C35.1003 74.2166 34.4304 73.7145 33.7606 73.2258C33.0907 72.7371 32.2936 72.255 31.5635 71.7998Z" fill="#48414C"/>
<path d="M0 82.846C0.524887 83.0152 1.03557 83.2256 1.52726 83.4753C2.02368 83.7286 2.49862 84.0219 2.94735 84.3523C3.40965 84.6742 3.8363 85.0445 4.22007 85.4569C4.62064 85.8822 4.93662 86.3797 5.15116 86.923L4.63538 86.8226C4.85998 86.5946 5.10185 86.3842 5.35882 86.1933C5.62437 86.016 5.90447 85.8614 6.19613 85.7314C6.77139 85.4466 7.42983 85.3777 8.05162 85.5372C7.45697 85.5646 6.88269 85.7621 6.39709 86.1063C6.15006 86.2652 5.91498 86.442 5.69374 86.6351C5.46962 86.8182 5.25917 87.0173 5.06408 87.231L4.74925 87.5791L4.5483 87.1239C4.05023 86.2163 3.36532 85.4245 2.53874 84.8008C1.76841 84.118 0.897602 83.482 0 82.846Z" fill="#48414C"/>
<path d="M11.3875 70.8023C12.1833 70.9781 12.944 71.2859 13.6382 71.7128C13.9958 71.9246 14.3284 72.1761 14.6295 72.4626C14.9614 72.7581 15.2263 73.121 15.4066 73.527L14.9042 73.4199C15.2783 73.107 15.7045 72.8622 16.1635 72.6969C16.6142 72.516 17.1138 72.497 17.5769 72.6433C17.1372 72.6924 16.715 72.8437 16.3444 73.0852C16.16 73.1986 15.9833 73.3238 15.8152 73.4601C15.6472 73.5898 15.4862 73.7283 15.3329 73.8751L15.0448 74.1764L14.8305 73.7747C14.4416 73.1502 13.9259 72.6142 13.3166 72.2015C12.7272 71.7195 12.0573 71.2843 11.3875 70.8023Z" fill="#48414C"/>
<path d="M185.254 103.539C186.06 103.847 186.843 104.21 187.599 104.624C188.362 105.033 189.095 105.498 189.789 106.016C190.502 106.526 191.162 107.107 191.759 107.75C192.379 108.399 192.869 109.16 193.206 109.993L192.69 109.892C193.047 109.544 193.432 109.226 193.842 108.942C194.241 108.651 194.667 108.4 195.115 108.192C195.561 107.977 196.034 107.824 196.521 107.737C197.006 107.649 197.503 107.663 197.982 107.777C197.507 107.763 197.034 107.829 196.582 107.971C196.141 108.127 195.717 108.327 195.316 108.567C194.915 108.809 194.532 109.08 194.17 109.377C193.805 109.665 193.463 109.981 193.145 110.321L192.817 110.669L192.629 110.214C192.295 109.476 191.842 108.798 191.29 108.205C190.722 107.588 190.109 107.015 189.454 106.491C188.785 105.956 188.115 105.454 187.445 104.972C186.775 104.49 185.985 103.994 185.254 103.539Z" fill="#48414C"/>
<path d="M153.691 114.585C154.216 114.753 154.727 114.963 155.218 115.215C155.713 115.463 156.188 115.749 156.638 116.072C157.1 116.392 157.524 116.762 157.904 117.176C158.309 117.599 158.628 118.097 158.842 118.642L158.326 118.535C158.562 118.317 158.813 118.116 159.077 117.933C159.34 117.751 159.62 117.597 159.914 117.471C160.489 117.186 161.148 117.117 161.769 117.277C161.17 117.296 160.589 117.487 160.095 117.826C159.862 117.987 159.638 118.161 159.425 118.348C159.204 118.534 158.994 118.733 158.795 118.944L158.48 119.292L158.279 118.843C157.783 117.934 157.098 117.142 156.27 116.52C155.459 115.857 154.582 115.221 153.691 114.585Z" fill="#48414C"/>
<path d="M165.105 102.542C165.901 102.717 166.662 103.025 167.356 103.452C167.714 103.664 168.046 103.915 168.347 104.202C168.673 104.498 168.933 104.858 169.111 105.26L168.609 105.159C168.983 104.846 169.409 104.602 169.868 104.436C170.318 104.256 170.817 104.235 171.281 104.376C170.842 104.431 170.42 104.584 170.049 104.825C169.863 104.936 169.686 105.061 169.52 105.199C169.35 105.327 169.189 105.466 169.037 105.614L168.749 105.916L168.535 105.507C168.142 104.886 167.627 104.35 167.021 103.934C166.411 103.459 165.755 103.024 165.105 102.542Z" fill="#48414C"/>
<path d="M114.772 17.3388C115.429 17.5714 116.067 17.8534 116.682 18.1824C117.301 18.5019 117.894 18.869 118.457 19.2803C119.034 19.6918 119.568 20.1606 120.051 20.6795C120.561 21.2075 120.966 21.8277 121.243 22.5071L120.727 22.4C121.02 22.1217 121.333 21.8665 121.665 21.6368C121.993 21.4073 122.34 21.2079 122.704 21.041C123.421 20.6759 124.242 20.5717 125.028 20.7464C124.268 20.7568 123.527 20.9896 122.898 21.4159C122.582 21.6193 122.28 21.8429 121.993 22.0853C121.706 22.3161 121.435 22.5666 121.183 22.8351L120.861 23.1833L120.667 22.7347C120.046 21.566 119.175 20.5487 118.115 19.7556C117.044 18.8916 115.929 18.0849 114.772 17.3388Z" fill="#48414C"/>
<path d="M142.88 22.092C144.115 22.5177 145.316 23.0392 146.47 23.6519C147.64 24.251 148.76 24.9427 149.819 25.7205C150.909 26.4869 151.915 27.3666 152.82 28.3448C153.769 29.3421 154.522 30.5096 155.037 31.7859L154.006 31.5851C154.553 31.0608 155.143 30.5817 155.767 30.1524C156.383 29.7193 157.038 29.345 157.723 29.0344C158.411 28.715 159.139 28.4898 159.887 28.3649C160.627 28.2521 161.382 28.2955 162.104 28.4921C161.39 28.4984 160.682 28.6205 160.008 28.8536C159.35 29.0963 158.719 29.4059 158.125 29.7775C157.528 30.147 156.959 30.561 156.424 31.016C155.888 31.4544 155.382 31.9285 154.91 32.4353L154.24 33.1047L153.845 32.1943C153.34 31.0935 152.661 30.0809 151.835 29.1951C150.986 28.2681 150.071 27.4044 149.096 26.6109C148.613 26.2092 148.104 25.821 147.609 25.4193L146.061 24.2745C145.016 23.5849 143.958 22.8485 142.88 22.092Z" fill="#48414C"/>
<path d="M128.444 5.54953C129.534 5.90066 130.59 6.34877 131.599 6.88846C132.627 7.39902 133.611 7.9947 134.54 8.66924C135.496 9.33663 136.379 10.1042 137.172 10.9588C138.009 11.8353 138.669 12.8651 139.115 13.9915L138.083 13.7839C138.567 13.3254 139.086 12.9068 139.637 12.532C140.173 12.153 140.743 11.8236 141.339 11.5479C141.944 11.2741 142.584 11.0848 143.241 10.9856C143.892 10.8926 144.555 10.9429 145.184 11.1329C144.562 11.1455 143.946 11.2608 143.362 11.4743C142.794 11.692 142.251 11.9679 141.741 12.2977C141.233 12.6273 140.75 12.9919 140.294 13.389C139.835 13.776 139.398 14.1895 138.988 14.6275L138.318 15.3304L137.989 14.4199C137.542 13.4699 136.945 12.5975 136.221 11.8358C135.485 11.0285 134.693 10.2745 133.85 9.57971L132.564 8.53534L131.224 7.52445L128.444 5.54953Z" fill="#48414C"/>
<path d="M229.545 59.9436L232.774 81.0585L258.268 104.865C258.268 104.865 265.543 117.658 239.151 105.179C212.758 92.7005 210.642 91.6695 210.642 91.6695L184.732 86.0862L229.545 59.9436Z" fill="#F0EFED"/>
<path opacity="0.2" d="M185.616 86.2803L210.642 91.6695C210.642 91.6695 247.979 110.415 254.035 110.649L216.362 87.7599L194.445 80.4359L185.616 86.2803Z" fill="url(#paint0_linear_1_1529)"/>
<path d="M221.962 66.752L230.791 84.3924L258.268 104.871L232.774 81.0585L229.545 59.9436L221.962 66.752Z" fill="#EFB93F"/>
<path d="M75.5594 118.776C75.5594 118.776 70.8704 110.267 71.279 106.498C71.6876 102.729 239.961 12.445 239.961 12.445C239.961 12.445 276.555 -8.24144 297.776 4.01646C297.776 4.01646 303.945 6.86169 295.633 16.9304C295.633 16.9304 288.264 27.2 194.076 83.6158C194.076 83.6359 123.367 121.441 75.5594 118.776Z" fill="#EFB93F"/>
<path opacity="0.16" d="M75.5728 118.783C75.5728 118.783 74.5948 116.989 73.5632 114.692C73.5632 114.692 169.526 95.3114 297.776 4.04324C297.776 4.04324 303.952 6.88177 295.639 16.9505C295.639 16.9505 288.271 27.2201 194.083 83.6359C194.096 83.6359 123.387 121.441 75.5728 118.783Z" fill="#CCCCCC"/>
<path opacity="0.1" d="M75.5728 118.783C119.622 96.2286 134.52 92.8946 178.576 70.3404C227.596 41.8011 225.546 14.1053 260.928 3.63489C276.455 -0.950946 288.117 -1.60702 297.769 4.04326C297.769 4.04326 303.945 6.88179 295.633 16.9505C295.633 16.9505 288.264 27.2201 194.076 83.6359C194.096 83.6359 123.387 121.441 75.5728 118.783Z" fill="#38303B"/>
<path d="M242.661 18.2024C242.536 18.2007 242.414 18.1743 242.3 18.1247C242.186 18.0752 242.083 18.0035 241.997 17.9138C241.911 17.8241 241.843 17.7181 241.799 17.6022C241.754 17.4863 241.733 17.3626 241.736 17.2384V16.415C241.743 16.164 241.849 15.926 242.031 15.7529C242.213 15.5798 242.456 15.4857 242.707 15.4911C242.959 15.4981 243.197 15.6041 243.37 15.786C243.543 15.9679 243.637 16.2108 243.632 16.4618V17.2786C243.625 17.5295 243.519 17.7675 243.337 17.9406C243.155 18.1137 242.912 18.2078 242.661 18.2024Z" fill="#38303B"/>
<path d="M239.137 20.1439C239.013 20.1413 238.891 20.1143 238.777 20.0644C238.664 20.0145 238.561 19.9428 238.475 19.8533C238.389 19.7637 238.322 19.6582 238.277 19.5426C238.232 19.4271 238.21 19.3038 238.213 19.1798V18.3564C238.212 18.2278 238.237 18.1004 238.287 17.9819C238.337 17.8635 238.411 17.7564 238.503 17.6674C238.596 17.5784 238.706 17.5093 238.827 17.4643C238.947 17.4193 239.076 17.3994 239.204 17.4058C239.455 17.4128 239.694 17.5188 239.867 17.7007C240.04 17.8825 240.134 18.1255 240.129 18.3765V19.1932C240.131 19.3221 240.106 19.45 240.057 19.5689C240.007 19.6878 239.933 19.7953 239.84 19.8845C239.747 19.9737 239.637 20.0428 239.516 20.0874C239.395 20.132 239.266 20.1513 239.137 20.1439Z" fill="#38303B"/>
<path d="M239.137 20.1439C239.013 20.1413 238.891 20.1143 238.777 20.0644C238.664 20.0145 238.561 19.9428 238.475 19.8533C238.389 19.7637 238.322 19.6582 238.277 19.5426C238.232 19.4271 238.21 19.3038 238.213 19.1798V18.3564C238.212 18.2278 238.237 18.1004 238.287 17.9819C238.337 17.8635 238.411 17.7564 238.503 17.6674C238.596 17.5784 238.706 17.5093 238.827 17.4643C238.947 17.4193 239.076 17.3994 239.204 17.4058C239.455 17.4128 239.694 17.5188 239.867 17.7007C240.04 17.8825 240.134 18.1255 240.129 18.3765V19.1932C240.131 19.3221 240.106 19.45 240.057 19.5689C240.007 19.6878 239.933 19.7953 239.84 19.8845C239.747 19.9737 239.637 20.0428 239.516 20.0874C239.395 20.132 239.266 20.1513 239.137 20.1439Z" fill="#38303B"/>
<path d="M235.627 22.092C235.376 22.0867 235.137 21.9824 234.963 21.8018C234.788 21.6212 234.693 21.379 234.696 21.128V20.3045C234.703 20.0536 234.809 19.8156 234.991 19.6425C235.173 19.4694 235.416 19.3753 235.667 19.3807C235.919 19.3877 236.157 19.4937 236.33 19.6756C236.503 19.8574 236.597 20.1004 236.592 20.3514V21.1682C236.589 21.2921 236.562 21.4144 236.512 21.5279C236.462 21.6414 236.391 21.744 236.301 21.8298C236.211 21.9156 236.106 21.9829 235.99 22.0279C235.875 22.0729 235.751 22.0947 235.627 22.092Z" fill="#38303B"/>
<path d="M235.627 22.092C235.376 22.0867 235.137 21.9824 234.963 21.8018C234.788 21.6212 234.693 21.379 234.696 21.128V20.3045C234.703 20.0536 234.809 19.8156 234.991 19.6425C235.173 19.4694 235.416 19.3753 235.667 19.3807C235.919 19.3877 236.157 19.4937 236.33 19.6756C236.503 19.8574 236.597 20.1004 236.592 20.3514V21.1682C236.589 21.2921 236.562 21.4144 236.512 21.5279C236.462 21.6414 236.391 21.744 236.301 21.8298C236.211 21.9156 236.106 21.9829 235.99 22.0279C235.875 22.0729 235.751 22.0947 235.627 22.092Z" fill="#38303B"/>
<path d="M232.104 24.0268C231.98 24.0242 231.857 23.9972 231.744 23.9473C231.63 23.8975 231.528 23.8257 231.442 23.7362C231.356 23.6467 231.289 23.5411 231.244 23.4256C231.199 23.31 231.177 23.1867 231.179 23.0628V22.2393C231.186 21.9884 231.293 21.7504 231.474 21.5773C231.656 21.4042 231.9 21.3101 232.151 21.3155C232.278 21.3145 232.404 21.3391 232.521 21.3877C232.639 21.4364 232.746 21.5081 232.835 21.5986C232.924 21.6891 232.994 21.7966 233.041 21.9147C233.088 22.0328 233.111 22.1591 233.109 22.2862V23.1029C233.105 23.2301 233.076 23.3554 233.024 23.4712C232.971 23.5871 232.895 23.6911 232.802 23.7773C232.708 23.8635 232.598 23.9299 232.478 23.9728C232.358 24.0156 232.231 24.034 232.104 24.0268Z" fill="#38303B"/>
<path d="M232.104 24.0268C231.98 24.0242 231.857 23.9972 231.744 23.9473C231.63 23.8975 231.528 23.8257 231.442 23.7362C231.356 23.6467 231.289 23.5411 231.244 23.4256C231.199 23.31 231.177 23.1867 231.179 23.0628V22.2393C231.186 21.9884 231.293 21.7504 231.474 21.5773C231.656 21.4042 231.9 21.3101 232.151 21.3155C232.278 21.3145 232.404 21.3391 232.521 21.3877C232.639 21.4364 232.746 21.5081 232.835 21.5986C232.924 21.6891 232.994 21.7966 233.041 21.9147C233.088 22.0328 233.111 22.1591 233.109 22.2862V23.1029C233.105 23.2301 233.076 23.3554 233.024 23.4712C232.971 23.5871 232.895 23.6911 232.802 23.7773C232.708 23.8635 232.598 23.9299 232.478 23.9728C232.358 24.0156 232.231 24.034 232.104 24.0268Z" fill="#38303B"/>
<path d="M228.587 25.9682C228.463 25.9656 228.341 25.9386 228.227 25.8888C228.114 25.8389 228.011 25.7671 227.925 25.6776C227.839 25.5881 227.772 25.4825 227.727 25.367C227.682 25.2515 227.66 25.1282 227.663 25.0042V24.1808C227.665 24.0568 227.692 23.9346 227.742 23.821C227.792 23.7075 227.864 23.6049 227.953 23.5191C228.043 23.4333 228.149 23.366 228.264 23.321C228.38 23.276 228.503 23.2542 228.627 23.2569C228.878 23.2639 229.117 23.3699 229.29 23.5518C229.463 23.7337 229.557 23.9766 229.552 24.2276V25.0444C229.55 25.1686 229.524 25.2913 229.474 25.4052C229.424 25.5191 229.353 25.6221 229.263 25.7081C229.173 25.794 229.067 25.8613 228.951 25.906C228.835 25.9506 228.711 25.9718 228.587 25.9682Z" fill="#38303B"/>
<path d="M228.587 25.9682C228.463 25.9656 228.341 25.9386 228.227 25.8888C228.114 25.8389 228.011 25.7671 227.925 25.6776C227.839 25.5881 227.772 25.4825 227.727 25.367C227.682 25.2515 227.66 25.1282 227.663 25.0042V24.1808C227.665 24.0568 227.692 23.9346 227.742 23.821C227.792 23.7075 227.864 23.6049 227.953 23.5191C228.043 23.4333 228.149 23.366 228.264 23.321C228.38 23.276 228.503 23.2542 228.627 23.2569C228.878 23.2639 229.117 23.3699 229.29 23.5518C229.463 23.7337 229.557 23.9766 229.552 24.2276V25.0444C229.55 25.1686 229.524 25.2913 229.474 25.4052C229.424 25.5191 229.353 25.6221 229.263 25.7081C229.173 25.794 229.067 25.8613 228.951 25.906C228.835 25.9506 228.711 25.9718 228.587 25.9682Z" fill="#38303B"/>
<path d="M225.07 27.9097C224.946 27.9071 224.823 27.8798 224.709 27.8296C224.595 27.7793 224.492 27.7069 224.406 27.6167C224.32 27.5265 224.253 27.4201 224.208 27.3038C224.163 27.1875 224.142 27.0635 224.146 26.9389V26.1222C224.153 25.8712 224.259 25.6332 224.441 25.4601C224.623 25.2871 224.866 25.1929 225.117 25.1983C225.368 25.2054 225.606 25.3114 225.78 25.4932C225.953 25.6751 226.047 25.9181 226.042 26.1691V26.9858C226.039 27.1104 226.012 27.2332 225.961 27.3471C225.911 27.4611 225.839 27.564 225.748 27.6499C225.658 27.7358 225.552 27.8029 225.435 27.8475C225.319 27.8921 225.195 27.9132 225.07 27.9097Z" fill="#38303B"/>
<path d="M225.07 27.9097C224.946 27.9071 224.823 27.8798 224.709 27.8296C224.595 27.7793 224.492 27.7069 224.406 27.6167C224.32 27.5265 224.253 27.4201 224.208 27.3038C224.163 27.1875 224.142 27.0635 224.146 26.9389V26.1222C224.153 25.8712 224.259 25.6332 224.441 25.4601C224.623 25.2871 224.866 25.1929 225.117 25.1983C225.368 25.2054 225.606 25.3114 225.78 25.4932C225.953 25.6751 226.047 25.9181 226.042 26.1691V26.9858C226.039 27.1104 226.012 27.2332 225.961 27.3471C225.911 27.4611 225.839 27.564 225.748 27.6499C225.658 27.7358 225.552 27.8029 225.435 27.8475C225.319 27.8921 225.195 27.9132 225.07 27.9097Z" fill="#38303B"/>
<path d="M221.547 29.8511C221.296 29.8441 221.058 29.7381 220.884 29.5562C220.711 29.3744 220.617 29.1314 220.623 28.8804V28.0637C220.63 27.8127 220.736 27.5747 220.918 27.4016C221.1 27.2285 221.343 27.1344 221.594 27.1398C221.72 27.1406 221.846 27.1668 221.962 27.2166C222.078 27.2664 222.184 27.339 222.272 27.43C222.36 27.5211 222.429 27.6288 222.474 27.7468C222.52 27.8648 222.542 27.9907 222.538 28.1172V28.934C222.534 29.0594 222.505 29.1828 222.453 29.2969C222.4 29.4111 222.326 29.5137 222.234 29.599C222.142 29.6843 222.034 29.7505 221.916 29.7937C221.798 29.837 221.672 29.8565 221.547 29.8511Z" fill="#38303B"/>
<path d="M221.547 29.8511C221.296 29.8441 221.058 29.7381 220.884 29.5562C220.711 29.3744 220.617 29.1314 220.623 28.8804V28.0637C220.63 27.8127 220.736 27.5747 220.918 27.4016C221.1 27.2285 221.343 27.1344 221.594 27.1398C221.72 27.1406 221.846 27.1668 221.962 27.2166C222.078 27.2664 222.184 27.339 222.272 27.43C222.36 27.5211 222.429 27.6288 222.474 27.7468C222.52 27.8648 222.542 27.9907 222.538 28.1172V28.934C222.534 29.0594 222.505 29.1828 222.453 29.2969C222.4 29.4111 222.326 29.5137 222.234 29.599C222.142 29.6843 222.034 29.7505 221.916 29.7937C221.798 29.837 221.672 29.8565 221.547 29.8511Z" fill="#38303B"/>
<path d="M218.03 31.7926C217.903 31.7892 217.779 31.7605 217.663 31.7082C217.548 31.656 217.444 31.5812 217.358 31.4882C217.272 31.3953 217.205 31.2861 217.162 31.1671C217.119 31.0481 217.099 30.9216 217.106 30.7951V29.9783C217.108 29.8544 217.135 29.7321 217.185 29.6186C217.235 29.5051 217.307 29.4025 217.397 29.3167C217.486 29.2309 217.592 29.1636 217.707 29.1186C217.823 29.0736 217.946 29.0518 218.07 29.0545C218.201 29.0515 218.331 29.0756 218.452 29.125C218.573 29.1745 218.682 29.2483 218.773 29.3419C218.864 29.4355 218.935 29.5468 218.981 29.669C219.028 29.7912 219.048 29.9215 219.042 30.052V30.8687C219.038 30.9965 219.009 31.1223 218.956 31.2386C218.903 31.3549 218.827 31.4594 218.732 31.5456C218.638 31.6319 218.527 31.6982 218.407 31.7406C218.286 31.783 218.158 31.8007 218.03 31.7926Z" fill="#38303B"/>
<path d="M218.03 31.7926C217.903 31.7892 217.779 31.7605 217.663 31.7082C217.548 31.656 217.444 31.5812 217.358 31.4882C217.272 31.3953 217.205 31.2861 217.162 31.1671C217.119 31.0481 217.099 30.9216 217.106 30.7951V29.9783C217.108 29.8544 217.135 29.7321 217.185 29.6186C217.235 29.5051 217.307 29.4025 217.397 29.3167C217.486 29.2309 217.592 29.1636 217.707 29.1186C217.823 29.0736 217.946 29.0518 218.07 29.0545C218.201 29.0515 218.331 29.0756 218.452 29.125C218.573 29.1745 218.682 29.2483 218.773 29.3419C218.864 29.4355 218.935 29.5468 218.981 29.669C219.028 29.7912 219.048 29.9215 219.042 30.052V30.8687C219.038 30.9965 219.009 31.1223 218.956 31.2386C218.903 31.3549 218.827 31.4594 218.732 31.5456C218.638 31.6319 218.527 31.6982 218.407 31.7406C218.286 31.783 218.158 31.8007 218.03 31.7926Z" fill="#38303B"/>
<path d="M214.513 33.734C214.262 33.727 214.024 33.621 213.851 33.4391C213.678 33.2573 213.584 33.0143 213.589 32.7633V31.9466C213.596 31.6956 213.702 31.4576 213.884 31.2845C214.066 31.1114 214.309 31.0173 214.56 31.0227C214.811 31.0297 215.05 31.1357 215.223 31.3176C215.396 31.4995 215.49 31.7424 215.485 31.9934V32.8102C215.482 32.9347 215.455 33.0575 215.405 33.1715C215.354 33.2855 215.282 33.3884 215.192 33.4743C215.101 33.5601 214.995 33.6273 214.879 33.6719C214.762 33.7165 214.638 33.7376 214.513 33.734Z" fill="#38303B"/>
<path d="M214.513 33.734C214.262 33.727 214.024 33.621 213.851 33.4391C213.678 33.2573 213.584 33.0143 213.589 32.7633V31.9466C213.596 31.6956 213.702 31.4576 213.884 31.2845C214.066 31.1114 214.309 31.0173 214.56 31.0227C214.811 31.0297 215.05 31.1357 215.223 31.3176C215.396 31.4995 215.49 31.7424 215.485 31.9934V32.8102C215.482 32.9347 215.455 33.0575 215.405 33.1715C215.354 33.2855 215.282 33.3884 215.192 33.4743C215.101 33.5601 214.995 33.6273 214.879 33.6719C214.762 33.7165 214.638 33.7376 214.513 33.734Z" fill="#38303B"/>
<path d="M211.003 35.6755C210.752 35.6685 210.514 35.5625 210.341 35.3806C210.168 35.1987 210.074 34.9558 210.079 34.7048V33.888C210.086 33.637 210.192 33.399 210.374 33.2259C210.556 33.0529 210.799 32.9587 211.05 32.9641C211.301 32.9712 211.54 33.0772 211.713 33.259C211.886 33.4409 211.98 33.6839 211.975 33.9349V34.7516C211.968 35.0026 211.862 35.2406 211.68 35.4137C211.498 35.5868 211.255 35.6809 211.003 35.6755Z" fill="#38303B"/>
<path d="M211.003 35.6755C210.752 35.6685 210.514 35.5625 210.341 35.3806C210.168 35.1987 210.074 34.9558 210.079 34.7048V33.888C210.086 33.637 210.192 33.399 210.374 33.2259C210.556 33.0529 210.799 32.9587 211.05 32.9641C211.301 32.9712 211.54 33.0772 211.713 33.259C211.886 33.4409 211.98 33.6839 211.975 33.9349V34.7516C211.968 35.0026 211.862 35.2406 211.68 35.4137C211.498 35.5868 211.255 35.6809 211.003 35.6755Z" fill="#38303B"/>
<path d="M207.473 37.6169C207.222 37.6099 206.984 37.5039 206.811 37.322C206.638 37.1402 206.544 36.8972 206.549 36.6462V35.8294C206.552 35.7055 206.579 35.5832 206.628 35.4697C206.678 35.3562 206.75 35.2536 206.84 35.1678C206.929 35.082 207.035 35.0147 207.15 34.9697C207.266 34.9247 207.389 34.9029 207.514 34.9056C207.638 34.9082 207.761 34.9354 207.875 34.9857C207.989 35.036 208.092 35.1083 208.178 35.1986C208.264 35.2888 208.331 35.3951 208.376 35.5115C208.42 35.6278 208.441 35.7518 208.438 35.8763V36.6931C208.431 36.9428 208.326 37.1798 208.145 37.3527C207.965 37.5256 207.723 37.6205 207.473 37.6169Z" fill="#38303B"/>
<path d="M207.473 37.6169C207.222 37.6099 206.984 37.5039 206.811 37.322C206.638 37.1402 206.544 36.8972 206.549 36.6462V35.8294C206.552 35.7055 206.579 35.5832 206.628 35.4697C206.678 35.3562 206.75 35.2536 206.84 35.1678C206.929 35.082 207.035 35.0147 207.15 34.9697C207.266 34.9247 207.389 34.9029 207.514 34.9056C207.638 34.9082 207.761 34.9354 207.875 34.9857C207.989 35.036 208.092 35.1083 208.178 35.1986C208.264 35.2888 208.331 35.3951 208.376 35.5115C208.42 35.6278 208.441 35.7518 208.438 35.8763V36.6931C208.431 36.9428 208.326 37.1798 208.145 37.3527C207.965 37.5256 207.723 37.6205 207.473 37.6169Z" fill="#38303B"/>
<path d="M203.957 39.5584C203.705 39.5514 203.467 39.4454 203.294 39.2635C203.121 39.0816 203.027 38.8387 203.032 38.5877V37.7709C203.03 37.6427 203.055 37.5154 203.104 37.3969C203.153 37.2785 203.226 37.1714 203.318 37.0822C203.411 36.9931 203.52 36.9239 203.64 36.8788C203.761 36.8338 203.889 36.8138 204.017 36.8203C204.147 36.8182 204.276 36.8429 204.395 36.8929C204.515 36.9428 204.623 37.0169 204.713 37.1105C204.803 37.2041 204.873 37.3152 204.918 37.4369C204.963 37.5586 204.982 37.6882 204.975 37.8178V38.6345C204.973 38.7635 204.945 38.8909 204.893 39.0086C204.84 39.1263 204.763 39.2318 204.667 39.3185C204.572 39.4052 204.459 39.4713 204.337 39.5126C204.215 39.5539 204.085 39.5694 203.957 39.5584Z" fill="#38303B"/>
<path d="M203.957 39.5584C203.705 39.5514 203.467 39.4454 203.294 39.2635C203.121 39.0816 203.027 38.8387 203.032 38.5877V37.7709C203.03 37.6427 203.055 37.5154 203.104 37.3969C203.153 37.2785 203.226 37.1714 203.318 37.0822C203.411 36.9931 203.52 36.9239 203.64 36.8788C203.761 36.8338 203.889 36.8138 204.017 36.8203C204.147 36.8182 204.276 36.8429 204.395 36.8929C204.515 36.9428 204.623 37.0169 204.713 37.1105C204.803 37.2041 204.873 37.3152 204.918 37.4369C204.963 37.5586 204.982 37.6882 204.975 37.8178V38.6345C204.973 38.7635 204.945 38.8909 204.893 39.0086C204.84 39.1263 204.763 39.2318 204.667 39.3185C204.572 39.4052 204.459 39.4713 204.337 39.5126C204.215 39.5539 204.085 39.5694 203.957 39.5584Z" fill="#38303B"/>
<path d="M200.433 41.5065C200.182 41.4995 199.944 41.3935 199.771 41.2116C199.598 41.0297 199.503 40.7868 199.509 40.5358V39.719C199.516 39.4681 199.622 39.2301 199.804 39.057C199.986 38.8839 200.229 38.7898 200.48 38.7952C200.604 38.7978 200.726 38.8248 200.84 38.8747C200.954 38.9245 201.056 38.9963 201.142 39.0858C201.228 39.1753 201.295 39.2809 201.34 39.3964C201.385 39.512 201.407 39.6352 201.404 39.7592V40.5826C201.397 40.8336 201.291 41.0716 201.109 41.2447C200.927 41.4178 200.684 41.5119 200.433 41.5065Z" fill="#38303B"/>
<path d="M200.433 41.5065C200.182 41.4995 199.944 41.3935 199.771 41.2116C199.598 41.0297 199.503 40.7868 199.509 40.5358V39.719C199.516 39.4681 199.622 39.2301 199.804 39.057C199.986 38.8839 200.229 38.7898 200.48 38.7952C200.604 38.7978 200.726 38.8248 200.84 38.8747C200.954 38.9245 201.056 38.9963 201.142 39.0858C201.228 39.1753 201.295 39.2809 201.34 39.3964C201.385 39.512 201.407 39.6352 201.404 39.7592V40.5826C201.397 40.8336 201.291 41.0716 201.109 41.2447C200.927 41.4178 200.684 41.5119 200.433 41.5065Z" fill="#38303B"/>
<path d="M196.937 43.4413C196.685 43.4343 196.447 43.3282 196.274 43.1464C196.101 42.9645 196.007 42.7216 196.012 42.4705V41.6538C196.015 41.5293 196.042 41.4065 196.092 41.2925C196.143 41.1785 196.215 41.0756 196.305 40.9897C196.396 40.9038 196.502 40.8367 196.618 40.7921C196.735 40.7475 196.859 40.7264 196.983 40.7299C197.233 40.737 197.471 40.842 197.644 41.0225C197.817 41.2029 197.911 41.4441 197.908 41.694V42.5174C197.901 42.7684 197.795 43.0064 197.613 43.1795C197.431 43.3526 197.188 43.4467 196.937 43.4413Z" fill="#38303B"/>
<path d="M196.937 43.4413C196.685 43.4343 196.447 43.3282 196.274 43.1464C196.101 42.9645 196.007 42.7216 196.012 42.4705V41.6538C196.015 41.5293 196.042 41.4065 196.092 41.2925C196.143 41.1785 196.215 41.0756 196.305 40.9897C196.396 40.9038 196.502 40.8367 196.618 40.7921C196.735 40.7475 196.859 40.7264 196.983 40.7299C197.233 40.737 197.471 40.842 197.644 41.0225C197.817 41.2029 197.911 41.4441 197.908 41.694V42.5174C197.901 42.7684 197.795 43.0064 197.613 43.1795C197.431 43.3526 197.188 43.4467 196.937 43.4413Z" fill="#38303B"/>
<path d="M193.4 45.3827C193.149 45.3757 192.91 45.2697 192.737 45.0878C192.564 44.9059 192.47 44.663 192.475 44.412V43.5952C192.477 43.471 192.503 43.3483 192.553 43.2344C192.603 43.1205 192.674 43.0175 192.764 42.9316C192.854 42.8456 192.96 42.7783 193.076 42.7336C193.192 42.689 193.316 42.6678 193.44 42.6714C193.564 42.674 193.686 42.701 193.8 42.7509C193.913 42.8007 194.016 42.8725 194.102 42.962C194.188 43.0515 194.255 43.1571 194.3 43.2726C194.345 43.3882 194.367 43.5114 194.364 43.6354V44.4588C194.362 44.5828 194.335 44.7051 194.285 44.8186C194.235 44.9321 194.163 45.0347 194.074 45.1205C193.984 45.2063 193.878 45.2736 193.763 45.3186C193.647 45.3636 193.524 45.3854 193.4 45.3827Z" fill="#38303B"/>
<path d="M193.4 45.3827C193.149 45.3757 192.91 45.2697 192.737 45.0878C192.564 44.9059 192.47 44.663 192.475 44.412V43.5952C192.477 43.471 192.503 43.3483 192.553 43.2344C192.603 43.1205 192.674 43.0175 192.764 42.9316C192.854 42.8456 192.96 42.7783 193.076 42.7336C193.192 42.689 193.316 42.6678 193.44 42.6714C193.564 42.674 193.686 42.701 193.8 42.7509C193.913 42.8007 194.016 42.8725 194.102 42.962C194.188 43.0515 194.255 43.1571 194.3 43.2726C194.345 43.3882 194.367 43.5114 194.364 43.6354V44.4588C194.362 44.5828 194.335 44.7051 194.285 44.8186C194.235 44.9321 194.163 45.0347 194.074 45.1205C193.984 45.2063 193.878 45.2736 193.763 45.3186C193.647 45.3636 193.524 45.3854 193.4 45.3827Z" fill="#38303B"/>
<path d="M189.876 47.3242C189.625 47.3171 189.387 47.2111 189.214 47.0293C189.041 46.8474 188.946 46.6044 188.952 46.3534V45.5367C188.959 45.2857 189.065 45.0477 189.247 44.8746C189.429 44.7015 189.672 44.6074 189.923 44.6128C190.047 44.6154 190.17 44.6425 190.283 44.6923C190.397 44.7422 190.499 44.8139 190.585 44.9034C190.671 44.993 190.738 45.0985 190.783 45.2141C190.828 45.3296 190.85 45.4529 190.848 45.5769V46.4003C190.841 46.6513 190.734 46.8893 190.553 47.0624C190.371 47.2354 190.127 47.3296 189.876 47.3242Z" fill="#38303B"/>
<path d="M189.876 47.3242C189.625 47.3171 189.387 47.2111 189.214 47.0293C189.041 46.8474 188.946 46.6044 188.952 46.3534V45.5367C188.959 45.2857 189.065 45.0477 189.247 44.8746C189.429 44.7015 189.672 44.6074 189.923 44.6128C190.047 44.6154 190.17 44.6425 190.283 44.6923C190.397 44.7422 190.499 44.8139 190.585 44.9034C190.671 44.993 190.738 45.0985 190.783 45.2141C190.828 45.3296 190.85 45.4529 190.848 45.5769V46.4003C190.841 46.6513 190.734 46.8893 190.553 47.0624C190.371 47.2354 190.127 47.3296 189.876 47.3242Z" fill="#38303B"/>
<path d="M186.36 49.2656C186.108 49.2586 185.87 49.1526 185.697 48.9707C185.524 48.7889 185.43 48.5459 185.435 48.2949V47.4782C185.442 47.2272 185.548 46.9892 185.73 46.8161C185.912 46.643 186.155 46.5489 186.406 46.5543C186.533 46.5542 186.659 46.5797 186.776 46.6292C186.893 46.6787 186.998 46.7513 187.086 46.8425C187.175 46.9337 187.243 47.0418 187.289 47.1602C187.334 47.2786 187.355 47.405 187.351 47.5317V48.3485C187.34 48.6012 187.23 48.8396 187.045 49.0115C186.859 49.1833 186.613 49.2747 186.36 49.2656Z" fill="#38303B"/>
<path d="M186.36 49.2656C186.108 49.2586 185.87 49.1526 185.697 48.9707C185.524 48.7889 185.43 48.5459 185.435 48.2949V47.4782C185.442 47.2272 185.548 46.9892 185.73 46.8161C185.912 46.643 186.155 46.5489 186.406 46.5543C186.533 46.5542 186.659 46.5797 186.776 46.6292C186.893 46.6787 186.998 46.7513 187.086 46.8425C187.175 46.9337 187.243 47.0418 187.289 47.1602C187.334 47.2786 187.355 47.405 187.351 47.5317V48.3485C187.34 48.6012 187.23 48.8396 187.045 49.0115C186.859 49.1833 186.613 49.2747 186.36 49.2656Z" fill="#38303B"/>
<path d="M182.87 51.2004C182.741 51.2024 182.613 51.1779 182.494 51.1283C182.375 51.0787 182.267 51.0051 182.178 50.9121C182.089 50.8191 182.02 50.7088 181.975 50.5879C181.93 50.467 181.911 50.3382 181.919 50.2096V49.3928C181.92 49.2686 181.947 49.1459 181.996 49.032C182.046 48.918 182.118 48.8151 182.207 48.7291C182.297 48.6432 182.403 48.5759 182.519 48.5312C182.635 48.4866 182.759 48.4654 182.883 48.469C183.007 48.4707 183.13 48.4971 183.244 48.5466C183.358 48.5962 183.461 48.6679 183.547 48.7576C183.633 48.8473 183.701 48.9532 183.745 49.0692C183.79 49.1851 183.811 49.3088 183.808 49.433V50.2497C183.809 50.3739 183.786 50.4972 183.74 50.6125C183.694 50.7278 183.625 50.8327 183.538 50.9211C183.45 51.0096 183.346 51.0798 183.232 51.1278C183.117 51.1757 182.994 51.2004 182.87 51.2004Z" fill="#38303B"/>
<path d="M182.87 51.2004C182.741 51.2024 182.613 51.1779 182.494 51.1283C182.375 51.0787 182.267 51.0051 182.178 50.9121C182.089 50.8191 182.02 50.7088 181.975 50.5879C181.93 50.467 181.911 50.3382 181.919 50.2096V49.3928C181.92 49.2686 181.947 49.1459 181.996 49.032C182.046 48.918 182.118 48.8151 182.207 48.7291C182.297 48.6432 182.403 48.5759 182.519 48.5312C182.635 48.4866 182.759 48.4654 182.883 48.469C183.007 48.4707 183.13 48.4971 183.244 48.5466C183.358 48.5962 183.461 48.6679 183.547 48.7576C183.633 48.8473 183.701 48.9532 183.745 49.0692C183.79 49.1851 183.811 49.3088 183.808 49.433V50.2497C183.809 50.3739 183.786 50.4972 183.74 50.6125C183.694 50.7278 183.625 50.8327 183.538 50.9211C183.45 51.0096 183.346 51.0798 183.232 51.1278C183.117 51.1757 182.994 51.2004 182.87 51.2004Z" fill="#38303B"/>
<path d="M179.326 53.1418C179.202 53.1401 179.079 53.1137 178.965 53.0641C178.851 53.0146 178.748 52.9428 178.662 52.8531C178.576 52.7634 178.509 52.6575 178.464 52.5416C178.419 52.4256 178.398 52.302 178.402 52.1778V51.361C178.409 51.1101 178.515 50.8721 178.697 50.699C178.879 50.5259 179.122 50.4318 179.373 50.4372C179.497 50.4389 179.62 50.4653 179.734 50.5149C179.848 50.5644 179.951 50.6361 180.037 50.7258C180.123 50.8155 180.19 50.9215 180.235 51.0374C180.28 51.1533 180.301 51.277 180.297 51.4012V52.2179C180.295 52.3425 180.268 52.4653 180.217 52.5793C180.167 52.6932 180.095 52.7961 180.004 52.882C179.914 52.9679 179.808 53.0351 179.691 53.0797C179.575 53.1242 179.451 53.1454 179.326 53.1418Z" fill="#38303B"/>
<path d="M179.326 53.1418C179.202 53.1401 179.079 53.1137 178.965 53.0641C178.851 53.0146 178.748 52.9428 178.662 52.8531C178.576 52.7634 178.509 52.6575 178.464 52.5416C178.419 52.4256 178.398 52.302 178.402 52.1778V51.361C178.409 51.1101 178.515 50.8721 178.697 50.699C178.879 50.5259 179.122 50.4318 179.373 50.4372C179.497 50.4389 179.62 50.4653 179.734 50.5149C179.848 50.5644 179.951 50.6361 180.037 50.7258C180.123 50.8155 180.19 50.9215 180.235 51.0374C180.28 51.1533 180.301 51.277 180.297 51.4012V52.2179C180.295 52.3425 180.268 52.4653 180.217 52.5793C180.167 52.6932 180.095 52.7961 180.004 52.882C179.914 52.9679 179.808 53.0351 179.691 53.0797C179.575 53.1242 179.451 53.1454 179.326 53.1418Z" fill="#38303B"/>
<path d="M175.803 55.0832C175.678 55.0815 175.556 55.0551 175.442 55.0055C175.328 54.956 175.225 54.8843 175.139 54.7946C175.053 54.7049 174.985 54.599 174.941 54.483C174.896 54.3671 174.875 54.2434 174.878 54.1192V53.3025C174.885 53.0515 174.991 52.8135 175.173 52.6404C175.355 52.4673 175.598 52.3732 175.85 52.3786C175.974 52.3803 176.097 52.4067 176.211 52.4563C176.325 52.5059 176.428 52.5776 176.514 52.6673C176.6 52.757 176.667 52.8629 176.712 52.9788C176.756 53.0948 176.778 53.2184 176.774 53.3426V54.1594C176.767 54.4104 176.661 54.6484 176.479 54.8214C176.297 54.9945 176.054 55.0886 175.803 55.0832Z" fill="#38303B"/>
<path d="M175.803 55.0832C175.678 55.0815 175.556 55.0551 175.442 55.0055C175.328 54.956 175.225 54.8843 175.139 54.7946C175.053 54.7049 174.985 54.599 174.941 54.483C174.896 54.3671 174.875 54.2434 174.878 54.1192V53.3025C174.885 53.0515 174.991 52.8135 175.173 52.6404C175.355 52.4673 175.598 52.3732 175.85 52.3786C175.974 52.3803 176.097 52.4067 176.211 52.4563C176.325 52.5059 176.428 52.5776 176.514 52.6673C176.6 52.757 176.667 52.8629 176.712 52.9788C176.756 53.0948 176.778 53.2184 176.774 53.3426V54.1594C176.767 54.4104 176.661 54.6484 176.479 54.8214C176.297 54.9945 176.054 55.0886 175.803 55.0832Z" fill="#38303B"/>
<path d="M172.286 57.0247C172.162 57.023 172.039 56.9966 171.925 56.947C171.811 56.8974 171.708 56.8257 171.622 56.736C171.536 56.6463 171.469 56.5404 171.424 56.4245C171.379 56.3085 171.358 56.1849 171.362 56.0607V55.2439C171.367 54.993 171.471 54.7543 171.652 54.5799C171.833 54.4056 172.075 54.3098 172.326 54.3134C172.577 54.3204 172.815 54.4264 172.989 54.6083C173.162 54.7901 173.256 55.0331 173.251 55.2841V56.1008C173.244 56.3506 173.138 56.5876 172.958 56.7605C172.777 56.9334 172.536 57.0283 172.286 57.0247Z" fill="#38303B"/>
<path d="M172.286 57.0247C172.162 57.023 172.039 56.9966 171.925 56.947C171.811 56.8974 171.708 56.8257 171.622 56.736C171.536 56.6463 171.469 56.5404 171.424 56.4245C171.379 56.3085 171.358 56.1849 171.362 56.0607V55.2439C171.367 54.993 171.471 54.7543 171.652 54.5799C171.833 54.4056 172.075 54.3098 172.326 54.3134C172.577 54.3204 172.815 54.4264 172.989 54.6083C173.162 54.7901 173.256 55.0331 173.251 55.2841V56.1008C173.244 56.3506 173.138 56.5876 172.958 56.7605C172.777 56.9334 172.536 57.0283 172.286 57.0247Z" fill="#38303B"/>
<path d="M168.803 58.9662C168.679 58.9636 168.556 58.9365 168.443 58.8867C168.329 58.8368 168.227 58.7651 168.141 58.6755C168.055 58.586 167.988 58.4805 167.943 58.3649C167.898 58.2494 167.876 58.1261 167.878 58.0021V57.1787C167.88 56.9323 167.977 56.6962 168.15 56.5201C168.322 56.344 168.556 56.2417 168.803 56.2347C169.054 56.2418 169.292 56.3478 169.465 56.5296C169.638 56.7115 169.733 56.9545 169.727 57.2055V58.0222C169.727 58.2691 169.63 58.5062 169.458 58.6827C169.285 58.8591 169.05 58.9609 168.803 58.9662Z" fill="#38303B"/>
<path d="M168.803 58.9662C168.679 58.9636 168.556 58.9365 168.443 58.8867C168.329 58.8368 168.227 58.7651 168.141 58.6755C168.055 58.586 167.988 58.4805 167.943 58.3649C167.898 58.2494 167.876 58.1261 167.878 58.0021V57.1787C167.88 56.9323 167.977 56.6962 168.15 56.5201C168.322 56.344 168.556 56.2417 168.803 56.2347C169.054 56.2418 169.292 56.3478 169.465 56.5296C169.638 56.7115 169.733 56.9545 169.727 57.2055V58.0222C169.727 58.2691 169.63 58.5062 169.458 58.6827C169.285 58.8591 169.05 58.9609 168.803 58.9662Z" fill="#38303B"/>
<path d="M165.246 60.921C165.122 60.9184 165 60.8914 164.886 60.8415C164.772 60.7916 164.67 60.7199 164.584 60.6304C164.498 60.5409 164.431 60.4353 164.386 60.3198C164.341 60.2042 164.319 60.0809 164.322 59.957V59.1335C164.329 58.8826 164.435 58.6446 164.617 58.4715C164.799 58.2984 165.042 58.2043 165.293 58.2097C165.544 58.2167 165.782 58.3227 165.955 58.5046C166.128 58.6864 166.223 58.9294 166.217 59.1804V59.9971C166.21 60.2481 166.104 60.4861 165.922 60.6592C165.74 60.8323 165.497 60.9264 165.246 60.921Z" fill="#38303B"/>
<path d="M165.246 60.921C165.122 60.9184 165 60.8914 164.886 60.8415C164.772 60.7916 164.67 60.7199 164.584 60.6304C164.498 60.5409 164.431 60.4353 164.386 60.3198C164.341 60.2042 164.319 60.0809 164.322 59.957V59.1335C164.329 58.8826 164.435 58.6446 164.617 58.4715C164.799 58.2984 165.042 58.2043 165.293 58.2097C165.544 58.2167 165.782 58.3227 165.955 58.5046C166.128 58.6864 166.223 58.9294 166.217 59.1804V59.9971C166.21 60.2481 166.104 60.4861 165.922 60.6592C165.74 60.8323 165.497 60.9264 165.246 60.921Z" fill="#38303B"/>
<path d="M161.729 62.8491C161.605 62.8465 161.483 62.8194 161.369 62.7696C161.256 62.7197 161.153 62.648 161.067 62.5585C160.981 62.4689 160.914 62.3634 160.869 62.2478C160.824 62.1323 160.802 62.009 160.805 61.885V61.0616C160.812 60.8118 160.917 60.5748 161.097 60.4019C161.278 60.229 161.519 60.1341 161.769 60.1377C162.02 60.1447 162.259 60.2508 162.432 60.4326C162.605 60.6145 162.699 60.8574 162.694 61.1085V61.9252C162.687 62.175 162.582 62.412 162.401 62.5849C162.22 62.7578 161.979 62.8527 161.729 62.8491Z" fill="#38303B"/>
<path d="M161.729 62.8491C161.605 62.8465 161.483 62.8194 161.369 62.7696C161.256 62.7197 161.153 62.648 161.067 62.5585C160.981 62.4689 160.914 62.3634 160.869 62.2478C160.824 62.1323 160.802 62.009 160.805 61.885V61.0616C160.812 60.8118 160.917 60.5748 161.097 60.4019C161.278 60.229 161.519 60.1341 161.769 60.1377C162.02 60.1447 162.259 60.2508 162.432 60.4326C162.605 60.6145 162.699 60.8574 162.694 61.1085V61.9252C162.687 62.175 162.582 62.412 162.401 62.5849C162.22 62.7578 161.979 62.8527 161.729 62.8491Z" fill="#38303B"/>
<path d="M158.212 64.7905C158.088 64.7879 157.966 64.7609 157.853 64.711C157.739 64.6612 157.636 64.5894 157.55 64.4999C157.465 64.4104 157.397 64.3048 157.352 64.1893C157.307 64.0737 157.285 63.9504 157.288 63.8265V63.003C157.29 62.8788 157.316 62.7562 157.366 62.6422C157.415 62.5283 157.487 62.4253 157.577 62.3394C157.667 62.2534 157.773 62.1861 157.889 62.1415C158.005 62.0968 158.128 62.0756 158.253 62.0792C158.504 62.0862 158.742 62.1922 158.915 62.3741C159.088 62.5559 159.182 62.7989 159.177 63.0499V63.8666C159.175 63.9909 159.149 64.1135 159.099 64.2275C159.05 64.3414 158.978 64.4444 158.888 64.5303C158.798 64.6163 158.692 64.6836 158.576 64.7282C158.46 64.7729 158.337 64.7941 158.212 64.7905Z" fill="#38303B"/>
<path d="M158.212 64.7905C158.088 64.7879 157.966 64.7609 157.853 64.711C157.739 64.6612 157.636 64.5894 157.55 64.4999C157.465 64.4104 157.397 64.3048 157.352 64.1893C157.307 64.0737 157.285 63.9504 157.288 63.8265V63.003C157.29 62.8788 157.316 62.7562 157.366 62.6422C157.415 62.5283 157.487 62.4253 157.577 62.3394C157.667 62.2534 157.773 62.1861 157.889 62.1415C158.005 62.0968 158.128 62.0756 158.253 62.0792C158.504 62.0862 158.742 62.1922 158.915 62.3741C159.088 62.5559 159.182 62.7989 159.177 63.0499V63.8666C159.175 63.9909 159.149 64.1135 159.099 64.2275C159.05 64.3414 158.978 64.4444 158.888 64.5303C158.798 64.6163 158.692 64.6836 158.576 64.7282C158.46 64.7729 158.337 64.7941 158.212 64.7905Z" fill="#38303B"/>
<path d="M154.689 66.7319C154.438 66.7249 154.2 66.6189 154.027 66.437C153.853 66.2552 153.759 66.0122 153.765 65.7612V64.9445C153.772 64.6935 153.878 64.4555 154.06 64.2824C154.242 64.1093 154.485 64.0152 154.736 64.0206C154.987 64.0276 155.225 64.1336 155.398 64.3155C155.572 64.4974 155.666 64.7403 155.66 64.9913V65.8081C155.653 66.059 155.547 66.297 155.365 66.4701C155.183 66.6432 154.94 66.7373 154.689 66.7319Z" fill="#38303B"/>
<path d="M154.689 66.7319C154.438 66.7249 154.2 66.6189 154.027 66.437C153.853 66.2552 153.759 66.0122 153.765 65.7612V64.9445C153.772 64.6935 153.878 64.4555 154.06 64.2824C154.242 64.1093 154.485 64.0152 154.736 64.0206C154.987 64.0276 155.225 64.1336 155.398 64.3155C155.572 64.4974 155.666 64.7403 155.66 64.9913V65.8081C155.653 66.059 155.547 66.297 155.365 66.4701C155.183 66.6432 154.94 66.7373 154.689 66.7319Z" fill="#38303B"/>
<path d="M151.172 68.6734C150.921 68.6664 150.683 68.5604 150.51 68.3785C150.337 68.1966 150.242 67.9537 150.248 67.7027V66.8859C150.25 66.7614 150.278 66.6386 150.328 66.5246C150.378 66.4106 150.451 66.3077 150.541 66.2218C150.631 66.136 150.738 66.0688 150.854 66.0242C150.97 65.9796 151.094 65.9585 151.219 65.9621C151.47 65.9691 151.708 66.0751 151.882 66.2569C152.055 66.4388 152.149 66.6818 152.143 66.9328V67.7495C152.136 68.0005 152.03 68.2385 151.848 68.4116C151.666 68.5847 151.423 68.6788 151.172 68.6734Z" fill="#38303B"/>
<path d="M151.172 68.6734C150.921 68.6664 150.683 68.5604 150.51 68.3785C150.337 68.1966 150.242 67.9537 150.248 67.7027V66.8859C150.25 66.7614 150.278 66.6386 150.328 66.5246C150.378 66.4106 150.451 66.3077 150.541 66.2218C150.631 66.136 150.738 66.0688 150.854 66.0242C150.97 65.9796 151.094 65.9585 151.219 65.9621C151.47 65.9691 151.708 66.0751 151.882 66.2569C152.055 66.4388 152.149 66.6818 152.143 66.9328V67.7495C152.136 68.0005 152.03 68.2385 151.848 68.4116C151.666 68.5847 151.423 68.6788 151.172 68.6734Z" fill="#38303B"/>
<path d="M147.656 70.6149C147.404 70.6078 147.166 70.5018 146.993 70.32C146.82 70.1381 146.726 69.8951 146.731 69.6441V68.8274C146.733 68.7031 146.759 68.5805 146.809 68.4666C146.858 68.3526 146.93 68.2497 147.02 68.1637C147.11 68.0777 147.216 68.0105 147.332 67.9658C147.448 67.9211 147.571 67.9 147.696 67.9035C147.947 67.9105 148.185 68.0165 148.358 68.1984C148.531 68.3803 148.626 68.6232 148.62 68.8742V69.691C148.618 69.8152 148.592 69.9379 148.542 70.0518C148.493 70.1658 148.421 70.2687 148.331 70.3547C148.242 70.4406 148.136 70.5079 148.02 70.5526C147.904 70.5972 147.78 70.6184 147.656 70.6149Z" fill="#38303B"/>
<path d="M147.656 70.6149C147.404 70.6078 147.166 70.5018 146.993 70.32C146.82 70.1381 146.726 69.8951 146.731 69.6441V68.8274C146.733 68.7031 146.759 68.5805 146.809 68.4666C146.858 68.3526 146.93 68.2497 147.02 68.1637C147.11 68.0777 147.216 68.0105 147.332 67.9658C147.448 67.9211 147.571 67.9 147.696 67.9035C147.947 67.9105 148.185 68.0165 148.358 68.1984C148.531 68.3803 148.626 68.6232 148.62 68.8742V69.691C148.618 69.8152 148.592 69.9379 148.542 70.0518C148.493 70.1658 148.421 70.2687 148.331 70.3547C148.242 70.4406 148.136 70.5079 148.02 70.5526C147.904 70.5972 147.78 70.6184 147.656 70.6149Z" fill="#38303B"/>
<path d="M144.132 72.5563C143.881 72.5493 143.643 72.4433 143.47 72.2614C143.297 72.0795 143.202 71.8366 143.208 71.5856V70.7688C143.215 70.5178 143.321 70.2798 143.503 70.1067C143.685 69.9337 143.928 69.8395 144.179 69.8449C144.43 69.852 144.668 69.958 144.841 70.1398C145.015 70.3217 145.109 70.5647 145.103 70.8157V71.6324C145.101 71.757 145.074 71.8798 145.023 71.9937C144.973 72.1077 144.901 72.2106 144.81 72.2965C144.72 72.3824 144.614 72.4496 144.497 72.4941C144.381 72.5387 144.257 72.5598 144.132 72.5563Z" fill="#38303B"/>
<path d="M144.132 72.5563C143.881 72.5493 143.643 72.4433 143.47 72.2614C143.297 72.0795 143.202 71.8366 143.208 71.5856V70.7688C143.215 70.5178 143.321 70.2798 143.503 70.1067C143.685 69.9337 143.928 69.8395 144.179 69.8449C144.43 69.852 144.668 69.958 144.841 70.1398C145.015 70.3217 145.109 70.5647 145.103 70.8157V71.6324C145.101 71.757 145.074 71.8798 145.023 71.9937C144.973 72.1077 144.901 72.2106 144.81 72.2965C144.72 72.3824 144.614 72.4496 144.497 72.4941C144.381 72.5387 144.257 72.5598 144.132 72.5563Z" fill="#38303B"/>
<path d="M140.615 74.4977C140.364 74.4907 140.126 74.3847 139.953 74.2028C139.78 74.021 139.686 73.778 139.691 73.527V72.7103C139.698 72.4593 139.804 72.2213 139.986 72.0482C140.168 71.8751 140.411 71.781 140.662 71.7864C140.913 71.7934 141.152 71.8994 141.325 72.0813C141.498 72.2632 141.592 72.5061 141.587 72.7571V73.5739C141.58 73.8249 141.474 74.0629 141.292 74.2359C141.11 74.409 140.867 74.5031 140.615 74.4977Z" fill="#38303B"/>
<path d="M140.615 74.4977C140.364 74.4907 140.126 74.3847 139.953 74.2028C139.78 74.021 139.686 73.778 139.691 73.527V72.7103C139.698 72.4593 139.804 72.2213 139.986 72.0482C140.168 71.8751 140.411 71.781 140.662 71.7864C140.913 71.7934 141.152 71.8994 141.325 72.0813C141.498 72.2632 141.592 72.5061 141.587 72.7571V73.5739C141.58 73.8249 141.474 74.0629 141.292 74.2359C141.11 74.409 140.867 74.5031 140.615 74.4977Z" fill="#38303B"/>
<path d="M137.099 76.4392C136.848 76.4322 136.609 76.3262 136.436 76.1443C136.263 75.9624 136.169 75.7195 136.174 75.4685V74.6517C136.176 74.5275 136.202 74.4048 136.252 74.2909C136.302 74.177 136.373 74.074 136.463 73.988C136.553 73.9021 136.659 73.8348 136.775 73.7901C136.891 73.7455 137.015 73.7243 137.139 73.7279C137.39 73.7349 137.628 73.8409 137.801 74.0228C137.975 74.2046 138.069 74.4476 138.063 74.6986V75.5153C138.062 75.6396 138.035 75.7622 137.986 75.8762C137.936 75.9901 137.864 76.0931 137.774 76.179C137.685 76.265 137.579 76.3323 137.463 76.3769C137.347 76.4216 137.223 76.4428 137.099 76.4392Z" fill="#38303B"/>
<path d="M137.099 76.4392C136.848 76.4322 136.609 76.3262 136.436 76.1443C136.263 75.9624 136.169 75.7195 136.174 75.4685V74.6517C136.176 74.5275 136.202 74.4048 136.252 74.2909C136.302 74.177 136.373 74.074 136.463 73.988C136.553 73.9021 136.659 73.8348 136.775 73.7901C136.891 73.7455 137.015 73.7243 137.139 73.7279C137.39 73.7349 137.628 73.8409 137.801 74.0228C137.975 74.2046 138.069 74.4476 138.063 74.6986V75.5153C138.062 75.6396 138.035 75.7622 137.986 75.8762C137.936 75.9901 137.864 76.0931 137.774 76.179C137.685 76.265 137.579 76.3323 137.463 76.3769C137.347 76.4216 137.223 76.4428 137.099 76.4392Z" fill="#38303B"/>
<path d="M133.582 78.3807C133.331 78.3736 133.093 78.2676 132.919 78.0858C132.746 77.9039 132.652 77.6609 132.657 77.4099V76.5932C132.664 76.3422 132.771 76.1042 132.953 75.9311C133.134 75.758 133.378 75.6639 133.629 75.6693C133.753 75.6719 133.876 75.6991 133.99 75.7494C134.104 75.7997 134.207 75.8721 134.293 75.9623C134.379 76.0525 134.446 76.1589 134.491 76.2752C134.536 76.3915 134.557 76.5155 134.553 76.64V77.4568C134.551 77.5813 134.523 77.7041 134.473 77.8181C134.423 77.9321 134.35 78.035 134.26 78.1209C134.17 78.2068 134.063 78.2739 133.947 78.3185C133.831 78.3631 133.706 78.3842 133.582 78.3807Z" fill="#38303B"/>
<path d="M133.582 78.3807C133.331 78.3736 133.093 78.2676 132.919 78.0858C132.746 77.9039 132.652 77.6609 132.657 77.4099V76.5932C132.664 76.3422 132.771 76.1042 132.953 75.9311C133.134 75.758 133.378 75.6639 133.629 75.6693C133.753 75.6719 133.876 75.6991 133.99 75.7494C134.104 75.7997 134.207 75.8721 134.293 75.9623C134.379 76.0525 134.446 76.1589 134.491 76.2752C134.536 76.3915 134.557 76.5155 134.553 76.64V77.4568C134.551 77.5813 134.523 77.7041 134.473 77.8181C134.423 77.9321 134.35 78.035 134.26 78.1209C134.17 78.2068 134.063 78.2739 133.947 78.3185C133.831 78.3631 133.706 78.3842 133.582 78.3807Z" fill="#38303B"/>
<path d="M130.059 80.3355C129.807 80.3284 129.569 80.2224 129.396 80.0406C129.223 79.8587 129.129 79.6157 129.134 79.3647V78.548C129.141 78.297 129.247 78.059 129.429 77.8859C129.611 77.7128 129.854 77.6187 130.105 77.6241C130.229 77.6267 130.352 77.6537 130.465 77.7036C130.579 77.7535 130.682 77.8252 130.767 77.9147C130.853 78.0043 130.921 78.1098 130.966 78.2254C131.011 78.3409 131.032 78.4642 131.03 78.5882V79.4116C131.023 79.6626 130.917 79.9006 130.735 80.0737C130.553 80.2467 130.31 80.3409 130.059 80.3355Z" fill="#38303B"/>
<path d="M130.059 80.3355C129.807 80.3284 129.569 80.2224 129.396 80.0406C129.223 79.8587 129.129 79.6157 129.134 79.3647V78.548C129.141 78.297 129.247 78.059 129.429 77.8859C129.611 77.7128 129.854 77.6187 130.105 77.6241C130.229 77.6267 130.352 77.6537 130.465 77.7036C130.579 77.7535 130.682 77.8252 130.767 77.9147C130.853 78.0043 130.921 78.1098 130.966 78.2254C131.011 78.3409 131.032 78.4642 131.03 78.5882V79.4116C131.023 79.6626 130.917 79.9006 130.735 80.0737C130.553 80.2467 130.31 80.3409 130.059 80.3355Z" fill="#38303B"/>
<path d="M126.542 82.2635C126.291 82.2565 126.053 82.1505 125.879 81.9686C125.706 81.7868 125.612 81.5438 125.617 81.2928V80.476C125.62 80.3521 125.647 80.2298 125.697 80.1163C125.747 80.0028 125.819 79.9002 125.908 79.8144C125.998 79.7286 126.103 79.6613 126.219 79.6163C126.335 79.5713 126.458 79.5495 126.582 79.5522C126.706 79.5548 126.828 79.5818 126.942 79.6317C127.056 79.6815 127.158 79.7533 127.244 79.8428C127.33 79.9323 127.397 80.0379 127.442 80.1534C127.487 80.269 127.509 80.3922 127.506 80.5162V81.3397C127.499 81.5894 127.394 81.8264 127.214 81.9993C127.033 82.1722 126.792 82.2671 126.542 82.2635Z" fill="#38303B"/>
<path d="M126.542 82.2635C126.291 82.2565 126.053 82.1505 125.879 81.9686C125.706 81.7868 125.612 81.5438 125.617 81.2928V80.476C125.62 80.3521 125.647 80.2298 125.697 80.1163C125.747 80.0028 125.819 79.9002 125.908 79.8144C125.998 79.7286 126.103 79.6613 126.219 79.6163C126.335 79.5713 126.458 79.5495 126.582 79.5522C126.706 79.5548 126.828 79.5818 126.942 79.6317C127.056 79.6815 127.158 79.7533 127.244 79.8428C127.33 79.9323 127.397 80.0379 127.442 80.1534C127.487 80.269 127.509 80.3922 127.506 80.5162V81.3397C127.499 81.5894 127.394 81.8264 127.214 81.9993C127.033 82.1722 126.792 82.2671 126.542 82.2635Z" fill="#38303B"/>
<path d="M123.025 84.205C122.774 84.198 122.536 84.092 122.363 83.9101C122.189 83.7282 122.095 83.4853 122.101 83.2343V82.4175C122.108 82.1665 122.214 81.9285 122.396 81.7555C122.578 81.5824 122.821 81.4883 123.072 81.4937C123.196 81.4963 123.318 81.5233 123.432 81.5731C123.546 81.623 123.648 81.6947 123.734 81.7843C123.82 81.8738 123.887 81.9793 123.932 82.0949C123.977 82.2104 123.999 82.3337 123.996 82.4577V83.2811C123.989 83.5321 123.883 83.7701 123.701 83.9432C123.519 84.1163 123.276 84.2104 123.025 84.205Z" fill="#38303B"/>
<path d="M255.073 9.7471L256.245 11.7555C256.245 11.7555 272.958 1.75369 278.163 0.146973C274.986 0.466008 271.829 0.95317 268.704 1.60641C265.054 2.4901 255.073 9.7471 255.073 9.7471Z" fill="#38303B"/>
<path d="M123.166 75.9973C123.166 75.9973 106.232 83.107 96.9277 74.558C87.6234 66.0089 73.4828 54.6749 73.4828 54.6749C73.4828 54.6749 64.6408 49.9886 61.6198 58.9661L77.0331 102.374L123.166 75.9973Z" fill="#EFB93F"/>
<path d="M123.105 76.0241C123.105 76.0241 106.172 83.1339 96.8607 74.5848C87.5497 66.0357 73.4158 54.7017 73.4158 54.7017C73.4158 54.7017 69.0484 52.3719 65.3776 54.1125C63.837 54.8489 92.3593 93.5708 92.3593 93.5708L123.105 76.0241Z" fill="#F0EFED"/>
<path d="M56.5891 40.576C56.5891 40.576 44.3576 29.5097 74.9565 34.8119C105.555 40.114 207.025 51.6355 207.025 51.6355C207.025 51.6355 217.28 60.2515 156.344 72.3889L141.191 66.0759L56.5891 40.576Z" fill="#F0EFED"/>
<path d="M74.9564 34.8119C105.562 40.0939 207.018 51.6623 207.018 51.6623C207.018 51.6623 210.307 54.4205 202.101 59.0264C195.811 62.5344 44.3509 29.5298 74.9564 34.8119Z" fill="#EFB93F"/>
<path opacity="0.2" d="M56.5891 40.5759C56.5891 40.5759 52.9518 37.2822 54.5795 35.1466C55.9594 33.3658 174.041 68.4725 174.041 68.4725C168.93 69.7178 163.062 71.0165 156.317 72.3554L141.165 66.0424L56.5891 40.5759Z" fill="#F0EFED"/>
<path d="M89.3583 118.535C89.3583 118.535 106.446 127.58 109.38 125.759C112.314 123.938 113.125 121.581 109.42 115.496L108.623 114.251L87.4626 116.848L89.3583 118.535Z" fill="#F0EFED"/>
<path d="M88.9296 95.3784L32.8763 89.775C32.8763 89.775 22.3999 88.6636 20.4104 90.5448C18.9501 91.9239 19.2515 94.18 22.3463 94.9834L71.6742 109.189C71.6742 109.189 93.6721 97.7416 88.9296 95.3784Z" fill="#F0EFED"/>
<path d="M19.6869 91.6361C19.2515 92.9081 19.9884 94.3742 22.3663 94.9834L71.6742 109.189C71.6742 109.189 75.1842 107.369 79.0961 105.025C79.0961 105.025 19.8209 91.2411 19.6869 91.6361Z" fill="#EFB93F"/>
<path d="M163.384 58.9126C163.384 58.9126 160.905 53.3828 163.638 49.8882C165.775 47.1568 182.923 38.1592 182.923 38.1592C182.923 38.1592 188.952 35.1131 194.043 41.3392C199.134 47.5652 193.661 53.0481 193.661 53.0481C193.661 53.0481 170.216 71.4986 163.384 58.9126Z" fill="white"/>
<path opacity="0.16" d="M163.384 58.9126L194.043 41.3391C199.134 47.5585 193.661 53.0481 193.661 53.0481C193.661 53.0481 170.216 71.4985 163.384 58.9126Z" fill="#CCCCCC"/>
<path d="M193.661 53.0481C193.661 53.0481 199.134 47.5585 194.043 41.3392C188.952 35.1198 182.923 38.1592 182.923 38.1592C182.923 38.1592 179.641 50.0623 193.661 53.0481Z" fill="#E5622C"/>
<path d="M182.923 40.7902C182.923 40.7902 187.19 37.7843 191.544 42.4505C195.898 47.1166 194.304 49.8146 193.152 51.823C193.152 51.8029 184.625 51.8631 182.923 40.7902Z" fill="#38303B"/>
<path d="M184.879 37.5634C184.202 37.6764 183.542 37.8767 182.917 38.1592C182.335 38.6345 181.937 39.2973 181.791 40.0337C181.45 43.381 182.495 50.8188 192.294 53.3226C192.524 53.3781 192.763 53.3823 192.995 53.3348C193.227 53.2874 193.445 53.1895 193.634 53.0481C194.49 52.1804 195.158 51.1458 195.597 50.0087C195.557 50.0087 195.068 51.4481 193.721 51.5418C191.893 51.669 188.53 50.5979 185.978 47.1568C184.096 44.6195 183.097 41.7275 183.211 39.9333C183.21 39.4144 183.37 38.908 183.669 38.4836C183.967 38.0592 184.39 37.7377 184.879 37.5634Z" fill="#EB9875"/>
<path d="M163.384 58.9929C163.384 58.9929 160.905 53.4631 163.638 49.9685C164.123 49.4585 164.652 48.9925 165.219 48.576C163.055 62.2599 176.52 62.5076 176.52 62.5076C169.66 64.7102 165.433 62.7687 163.384 58.9929Z" fill="#E5622C"/>
<path d="M230.717 89.8151C230.717 89.8151 228.56 84.9883 230.945 81.9355C232.807 79.5522 247.785 71.6927 247.785 71.6927C247.785 71.6927 253.043 69.0148 257.491 74.4643C261.939 79.9137 257.163 84.6937 257.163 84.6937C257.163 84.6937 236.686 100.808 230.717 89.8151Z" fill="white"/>
<path opacity="0.16" d="M230.717 89.8151L257.511 74.4643C261.966 79.9003 257.183 84.6937 257.183 84.6937C257.183 84.6937 236.706 100.808 230.737 89.8151" fill="#CCCCCC"/>
<path d="M257.163 84.6937C257.163 84.6937 261.946 79.9003 257.491 74.4642C253.037 69.0282 247.785 71.6927 247.785 71.6927C247.785 71.6927 244.918 82.0895 257.163 84.6937Z" fill="#E5622C"/>
<path d="M247.785 73.9956C247.785 73.9956 251.516 71.3647 255.314 75.4417C259.112 79.5187 257.726 81.8886 256.721 83.6025C256.721 83.6025 249.265 83.6828 247.785 73.9956Z" fill="#38303B"/>
<path d="M249.5 71.1705C248.908 71.2694 248.332 71.445 247.785 71.6927C247.276 72.1055 246.928 72.6835 246.8 73.3262C246.506 76.2317 247.417 82.7522 255.971 84.9347C256.175 84.9848 256.388 84.9892 256.594 84.9476C256.8 84.9059 256.994 84.8192 257.163 84.6937C257.902 83.9276 258.472 83.0155 258.838 82.0158C258.706 82.3622 258.486 82.668 258.199 82.9029C257.912 83.1379 257.569 83.2936 257.203 83.3548C255.602 83.4619 252.668 82.5246 250.444 79.5254C248.797 77.3095 247.926 74.7856 248.02 73.2124C248.027 72.7615 248.174 72.3239 248.438 71.9588C248.703 71.5936 249.074 71.3185 249.5 71.1705Z" fill="#EB9875"/>
<path d="M230.717 89.8888C230.717 89.8888 228.56 85.0619 230.945 82.0092C231.366 81.561 231.828 81.1531 232.325 80.7907C230.436 92.734 242.192 92.9616 242.192 92.9616C236.203 94.883 232.512 93.1825 230.717 89.8888Z" fill="#E5622C"/>
<defs>
<linearGradient id="paint0_linear_1_1529" x1="16479.5" y1="1804.39" x2="19305" y2="8202.28" gradientUnits="userSpaceOnUse">
<stop stop-color="#D5DEFF"/>
<stop offset="1" stop-color="#281B9A"/>
</linearGradient>
</defs>
</svg>
