<svg width="375" height="181" viewBox="0 0 375 181" fill="none" xmlns="http://www.w3.org/2000/svg">
<path d="M95.465 92.8407C90.6187 91.7973 88.2411 83.8022 88.9687 78.8982C89.4822 76.4595 90.6527 74.2091 92.3527 72.3922C94.0526 70.5754 96.2168 69.2618 98.6092 68.5946C103.451 67.3271 108.585 67.8551 113.07 70.0815C116.669 71.7248 120.008 74.1507 123.919 74.7246C130.792 75.755 136.912 70.9553 142.849 67.2382C147.358 64.3949 152.347 62.0212 157.674 61.6951C163.001 61.369 168.705 63.508 171.563 68.0338C172.745 69.8989 173.447 72.1552 175.175 73.5247C179.073 76.6419 184.53 73.3812 189.285 71.9335C192.409 70.8772 195.809 71.0025 198.848 72.2857C200.333 72.9604 201.604 74.0333 202.521 75.3863C203.438 76.7394 203.965 78.3202 204.045 79.9547C203.974 81.3873 203.613 82.7904 202.983 84.0778C202.353 85.3652 201.468 86.5097 200.381 87.4411C193.43 93.8711 182.737 93.6755 173.434 92.0321C164.131 90.3887 154.543 87.702 145.448 90.4018C142.524 91.2756 139.77 92.6842 136.795 93.3494C130.519 94.771 123.997 92.7494 117.566 93.1016C110.056 93.5059 101.792 97.0144 95.478 92.8407" fill="#F1F0EE"/>
<path d="M-42.9459 144.737C-49.8191 143.615 -52.9893 136.572 -51.729 132.373C-50.4687 128.173 -44.5311 124.912 -37.7489 123.96C-30.8321 123.102 -23.8119 123.774 -17.1815 125.93C-12.1013 127.521 -7.39799 129.764 -1.85012 130.455C7.92036 131.668 16.8593 127.847 25.3305 124.86C32.174 122.284 39.3971 120.869 46.7035 120.674C54.3042 120.674 62.3856 122.76 66.3224 126.804C67.9465 128.473 68.921 130.455 71.3116 131.734C76.7555 134.603 84.6681 132.047 91.4892 131.003C96.0276 130.236 100.679 130.495 105.106 131.76C109.276 133.064 112.459 135.79 112.381 138.633C112.381 141.124 109.783 143.355 106.769 144.946C96.6733 150.163 81.4459 149.524 68.2323 147.672C55.0188 145.82 41.3245 143.028 28.3318 144.946C24.1352 145.559 20.1725 146.654 15.9239 147.098C6.93292 148.024 -2.26589 145.976 -11.4777 145.989C-22.2096 145.989 -34.072 148.598 -42.92 144.685" fill="#F1F0EE"/>
<path d="M270.684 176.743C263.811 175.622 260.641 168.579 261.914 164.366C263.187 160.153 269.151 156.919 275.946 155.901C282.862 155.039 289.882 155.707 296.514 157.858C301.594 159.449 306.297 161.771 311.845 162.397C321.603 163.597 330.554 159.788 339.026 156.788C345.847 154.236 353.043 152.839 360.321 152.654C367.921 152.654 375.99 154.728 379.94 158.784C381.564 160.453 382.538 162.436 384.929 163.714C390.373 166.583 398.285 164.014 405.093 162.984C409.631 162.22 414.281 162.474 418.71 163.727C422.893 165.031 426.077 167.77 425.999 170.6C425.934 173.105 423.465 175.335 420.386 176.926C410.29 182.143 395.063 181.504 381.837 179.652C368.61 177.8 354.942 175.009 341.949 176.926C337.752 177.539 333.79 178.635 329.528 179.078C320.55 180.004 311.338 177.956 302.139 177.956C291.408 177.956 279.532 180.565 270.684 176.717" fill="#F1F0EE"/>
<path d="M201.836 50.2307C194.04 48.5612 190.221 35.6752 191.442 27.7844C192.663 19.8937 199.328 13.4376 206.968 11.1943C214.608 8.95098 222.975 10.2813 230.225 13.5941C236.02 16.2026 241.399 20.1154 247.687 21.0806C258.744 22.737 268.683 15.0027 278.142 9.02924C285.457 4.43826 293.564 0.603747 302.062 0.0559596C310.559 -0.491828 319.823 2.96445 324.409 10.2422C326.306 13.255 327.462 16.8809 330.23 19.0981C336.479 24.1195 345.301 18.8633 352.954 16.4896C357.979 14.7871 363.452 14.9912 368.337 17.0635C373.092 19.2807 376.782 24.1195 376.808 29.3887C376.808 34.0449 374.119 38.3228 370.702 41.4791C359.502 51.8088 342.313 51.5089 327.319 48.8612C312.326 46.2136 296.812 41.8704 282.222 46.2527C277.518 47.6483 273.127 49.9307 268.294 51.0002C258.198 53.2826 247.687 50.022 237.358 50.5959C225.262 51.261 211.957 56.8693 201.836 50.1785" fill="#F1F0EE"/>
</svg>
