<svg width="75" height="165" viewBox="0 0 75 165" fill="none" xmlns="http://www.w3.org/2000/svg">
<path d="M26.8939 144.714H13.3773C11.4149 144.714 9.82397 146.305 9.82397 148.268V161.267C9.82397 163.229 11.4149 164.82 13.3773 164.82H26.8939C28.8563 164.82 30.4472 163.229 30.4472 161.267V148.268C30.4472 146.305 28.8563 144.714 26.8939 144.714Z" fill="#38303B"/>
<path opacity="0.54" d="M30.4472 147.183H9.82397V158.888H30.4472V147.183Z" fill="black"/>
<path d="M118.763 55.3935H45.5961L56.3257 35.2979H108.033L118.763 55.3935Z" fill="#EFB93F"/>
<path d="M115.16 54.4082H49.1992L58.8738 37.9255H105.485L115.16 54.4082Z" fill="#F0EFED"/>
<path d="M145.517 88.0303L19.8171 88.3588L5.95215 102.532V143.062H159.372V102.532L145.517 88.0303Z" fill="#EFB93F"/>
<path d="M145.517 88.0304L18.8516 90.021L32.179 57.852C32.7047 56.5514 33.6031 55.4352 34.7613 54.6436C35.9195 53.852 37.2857 53.4203 38.6885 53.4029L124.834 52.8156C126.208 52.8129 127.552 53.2081 128.706 53.9535C129.859 54.699 130.772 55.7626 131.334 57.0159L145.517 88.0304Z" fill="#EFB93F"/>
<path d="M141.964 87.901L22.3849 89.7026L34.9658 60.3304C35.4842 59.13 36.3411 58.1066 37.4317 57.3854C38.5224 56.6642 39.7995 56.2764 41.107 56.2694L122.435 55.732C123.719 55.7134 124.981 56.0625 126.073 56.738C127.165 57.4134 128.04 58.3871 128.596 59.5441L141.964 87.901Z" fill="#F0EFED"/>
<path d="M18.1747 119.194L21.4593 120.508C23.3694 121.267 25.3823 121.737 27.4312 121.901L38.9771 122.897C39.0661 122.904 39.1555 122.887 39.2361 122.849C39.3168 122.81 39.3858 122.751 39.4363 122.678C39.4868 122.604 39.517 122.518 39.5237 122.429C39.5304 122.34 39.5135 122.251 39.4747 122.17L38.4794 119.931C37.5392 117.839 36.0919 116.016 34.2687 114.625C32.4454 113.235 30.3039 112.321 28.0384 111.968L13.1084 109.699C12.9169 109.674 12.7223 109.695 12.5403 109.759C12.3582 109.823 12.1938 109.93 12.0602 110.069C11.9266 110.208 11.8275 110.377 11.7711 110.562C11.7146 110.746 11.7022 110.942 11.7349 111.132C12.0282 112.915 12.7743 114.592 13.9019 116.004C15.0295 117.416 16.5008 118.514 18.1747 119.194V119.194Z" fill="#F0EFED"/>
<path d="M116.374 114.397H48.9503C47.0978 114.397 45.5961 115.898 45.5961 117.751V122.578C45.5961 124.431 47.0978 125.933 48.9503 125.933H116.374C118.226 125.933 119.728 124.431 119.728 122.578V117.751C119.728 115.898 118.226 114.397 116.374 114.397Z" fill="#F0EFED"/>
<path d="M122.147 137.797H43.1774C42.7885 137.792 42.4174 137.633 42.1451 137.355C41.8729 137.077 41.7216 136.703 41.7243 136.314C41.7216 136.121 41.7572 135.929 41.8289 135.75C41.9007 135.571 42.0071 135.408 42.1422 135.27C42.2773 135.132 42.4383 135.022 42.6159 134.947C42.7936 134.871 42.9844 134.832 43.1774 134.831H122.147C122.339 134.833 122.529 134.874 122.705 134.95C122.882 135.026 123.042 135.136 123.176 135.273C123.31 135.411 123.415 135.574 123.486 135.752C123.557 135.931 123.593 136.122 123.59 136.314C123.593 136.506 123.557 136.697 123.486 136.875C123.415 137.054 123.31 137.216 123.176 137.354C123.042 137.492 122.882 137.602 122.705 137.678C122.529 137.754 122.339 137.794 122.147 137.797V137.797Z" fill="#F0EFED"/>
<path d="M33.5126 134.831H35.5033C35.6954 134.833 35.8852 134.874 36.0617 134.95C36.2382 135.026 36.3981 135.136 36.5321 135.273C36.6661 135.411 36.7717 135.574 36.8428 135.752C36.9139 135.931 36.9492 136.122 36.9465 136.314C36.9492 136.506 36.9139 136.697 36.8428 136.875C36.7717 137.054 36.6661 137.216 36.5321 137.354C36.3981 137.492 36.2382 137.602 36.0617 137.678C35.8852 137.754 35.6954 137.794 35.5033 137.797H33.5126C33.3197 137.795 33.1288 137.756 32.9512 137.681C32.7735 137.605 32.6125 137.496 32.4774 137.358C32.3423 137.22 32.2359 137.057 32.1641 136.877C32.0924 136.698 32.0568 136.507 32.0595 136.314V136.314C32.0568 136.121 32.0924 135.929 32.1641 135.75C32.2359 135.571 32.3423 135.408 32.4774 135.27C32.6125 135.132 32.7735 135.022 32.9512 134.947C33.1288 134.871 33.3197 134.832 33.5126 134.831V134.831Z" fill="#EAE5DA"/>
<path d="M155.341 142.405H10.0231C9.14516 142.409 8.27664 142.586 7.4672 142.926C6.65775 143.266 5.92325 143.762 5.30572 144.386C4.68819 145.01 4.19974 145.75 3.86832 146.563C3.5369 147.376 3.36902 148.246 3.37426 149.124C3.36374 150.002 3.52643 150.873 3.853 151.688C4.17957 152.503 4.66362 153.246 5.27746 153.873C5.8913 154.501 6.62288 155.001 7.43035 155.346C8.23782 155.691 9.10533 155.873 9.98324 155.882H155.301C156.179 155.873 157.047 155.691 157.854 155.346C158.662 155.001 159.393 154.501 160.007 153.873C160.621 153.246 161.105 152.503 161.432 151.688C161.758 150.873 161.921 150.002 161.91 149.124V149.124C161.921 147.364 161.237 145.672 160.007 144.414C158.777 143.156 157.1 142.434 155.341 142.405V142.405Z" fill="#F0EFED"/>
<path opacity="0.09" d="M3.37425 150.646V152.299C3.36899 152.769 3.45647 153.236 3.63171 153.673C3.80694 154.11 4.06648 154.508 4.39552 154.844C4.72455 155.181 5.11664 155.449 5.54939 155.634C5.98213 155.819 6.44706 155.917 6.91762 155.922H158.456C158.927 155.917 159.392 155.819 159.825 155.634C160.257 155.449 160.65 155.181 160.979 154.844C161.308 154.508 161.567 154.11 161.742 153.673C161.918 153.236 162.005 152.769 162 152.299V150.646H3.37425Z" fill="black"/>
<g opacity="0.86">
<path opacity="0.86" d="M78.1543 40.683H75.2203V48.8206H74.0228V40.683H71.095V39.6925H78.1543V40.683ZM84.0475 46.4383H80.2232L79.3643 48.8206H78.123L81.6088 39.6925H82.662L86.154 48.8206H84.919L84.0475 46.4383ZM80.5868 45.4477H83.6902L82.1354 41.1783L80.5868 45.4477ZM90.3608 43.1908L92.5488 39.6925H93.9657L91.0818 44.2189L94.0346 48.8206H92.6052L90.3608 45.2597L88.1038 48.8206H86.6807L89.6398 44.2189L86.7496 39.6925H88.1602L90.3608 43.1908ZM96.7242 48.8206H95.5205V39.6925H96.7242V48.8206Z" fill="black"/>
</g>
<g opacity="0.7">
<g opacity="0.7">
<path opacity="0.7" d="M0 18.7356L23.1115 0.769897L107.555 114.377L84.4338 132.342L0 18.7356Z" fill="white"/>
<path opacity="0.7" d="M53.2302 17.0933L67.9511 5.64697L152.395 119.254L137.674 130.69L53.2302 17.0933Z" fill="white"/>
</g>
</g>
</svg>
