<svg width="219" height="320" viewBox="0 0 219 320" fill="none" xmlns="http://www.w3.org/2000/svg">
<path d="M48.9819 304.65L21.49 267.537C21.0953 266.997 20.8835 266.345 20.8853 265.676C20.8872 265.007 21.1027 264.356 21.5003 263.818C21.898 263.28 22.4571 262.884 23.096 262.686C23.735 262.488 24.4204 262.5 25.0524 262.719C32.4422 265.503 38.8152 270.461 43.3317 276.939C44.7917 266.077 35.7397 256.952 27.4614 249.798C20.8622 244.103 13.7519 237.285 11.6787 229.255C11.4942 228.508 11.5098 227.726 11.7238 226.987C11.9378 226.248 12.3426 225.578 12.8977 225.045C13.4527 224.513 14.1383 224.135 14.8854 223.952C15.6326 223.768 16.4149 223.784 17.1537 223.999C24.4064 226.068 30.9225 230.154 35.9441 235.781C28.1752 223.063 18.6991 211.469 7.78048 201.325C5.12299 199.024 2.80309 196.36 0.88924 193.412C0.407279 192.592 0.178778 191.648 0.232528 190.698C0.286278 189.749 0.619874 188.836 1.19128 188.076C1.76269 187.316 2.54635 186.741 3.44352 186.426C4.34069 186.11 5.31124 186.067 6.23287 186.302C10.8512 187.57 15.1797 189.722 18.9788 192.638C8.89009 180.389 -1.87018 166.081 0.276036 150.298C0.728639 146.984 1.88205 143.494 6.11607 142.618C7.88135 142.261 9.71413 142.465 11.3575 143.202C15.2265 144.91 17.5917 148.575 19.5482 152.211C24.2396 160.959 27.4419 170.428 29.0236 180.228C29.0868 180.608 29.2634 180.96 29.5302 181.238C29.7969 181.517 30.1415 181.708 30.5187 181.786C30.8959 181.865 31.2881 181.828 31.6439 181.681C31.9998 181.533 32.3027 181.281 32.513 180.958C35.5207 176.082 33.973 166.358 39.7401 164.606C41.1223 164.229 42.5942 164.364 43.8846 164.987C45.175 165.609 46.1971 166.677 46.7627 167.993C48.9965 172.913 46.7627 177.673 45.0691 182.243C41.0331 192.955 39.3018 204.397 39.9883 215.823C42.5433 214.363 45.1275 212.903 47.7117 211.443C48.9001 210.791 50.2543 210.502 51.6054 210.614C52.9565 210.726 54.2448 211.233 55.3097 212.072C56.3745 212.912 57.1689 214.045 57.5936 215.333C58.0183 216.62 58.0547 218.005 57.6982 219.313C55.3184 227.912 48.9381 236.949 48.8359 246.133C48.8359 247.593 49.0403 249.126 50.9675 249.52C51.8368 249.662 52.7286 249.524 53.5153 249.128C54.3019 248.733 54.9433 248.098 55.3476 247.316C58.9538 240.658 66.575 245.753 66.8962 251.272C67.159 255.842 64.2974 259.93 61.538 263.595C58.7786 267.259 55.8586 271.274 55.99 275.844L64.0784 273.041C64.8055 272.794 65.5897 272.769 66.3312 272.969C67.0726 273.169 67.7378 273.585 68.2419 274.164C68.7461 274.743 69.0664 275.46 69.1622 276.222C69.2579 276.984 69.1248 277.757 68.7797 278.443C66.8821 281.817 64.4119 284.836 61.4796 287.364C56.8076 291.744 51.902 298.065 54.4862 303.949" fill="#F0EFED"/>
<path d="M183.376 309.439C184.734 304.008 187.654 298.547 192.705 296.167C198.283 293.539 206.327 294.474 209.16 288.999C209.871 287.612 210.075 286.02 209.737 284.499C209.399 282.978 208.541 281.622 207.31 280.666C206.079 279.711 204.553 279.215 202.995 279.265C201.438 279.315 199.946 279.907 198.779 280.939C197.173 276.924 200.487 272.661 203.991 270.15C207.495 267.639 211.744 265.449 213.204 261.39C214.664 257.331 210.196 251.696 206.663 254.178C205.437 255.054 204.604 256.718 203.086 256.791C201.568 256.864 200.516 255.083 200.75 253.594C201.126 252.119 201.929 250.789 203.057 249.768L212.372 239.548C214.824 236.862 217.409 233.869 217.628 230.248C217.847 226.627 214.167 222.714 210.839 224.189C208.459 225.24 206.678 228.569 204.239 227.693C202.035 226.861 202.502 223.576 203.597 221.488C206.371 216.203 210.488 211.706 213.175 206.377C215.861 201.048 216.883 194.2 213.364 189.368C212.676 188.306 211.719 187.445 210.591 186.87C209.463 186.296 208.204 186.03 206.94 186.097C203.641 186.535 201.611 189.85 200.268 192.901C196.613 201.233 194.52 210.166 194.092 219.254C191.318 219.356 190.019 215.954 189.23 213.283C188.442 210.611 185.989 207.443 183.522 208.8C183.038 209.117 182.627 209.534 182.318 210.022C182.008 210.511 181.806 211.06 181.726 211.633C179.799 220.189 189.157 226.788 192.224 234.993C193.167 237.167 193.261 239.616 192.486 241.855C192.072 242.953 191.29 243.872 190.272 244.455C189.254 245.039 188.065 245.25 186.909 245.052C184.325 244.395 181.069 241.475 179.77 243.782C179.054 244.979 179.959 246.454 180.792 247.593C184.247 252.332 186.846 257.639 188.471 263.273C189.464 266.734 189.931 270.778 187.814 273.669C185.697 276.559 179.945 276.267 179.375 272.705C177.667 272.632 176.455 274.632 176.689 276.326C177.075 277.997 177.834 279.559 178.908 280.896C181.082 284.334 182.487 288.201 183.029 292.233C183.571 296.265 183.236 300.366 182.047 304.256" fill="#F0EFED"/>
<path d="M219 310.286C219 315.352 171.506 319.469 112.916 319.469C54.3257 319.469 6.84619 315.352 6.84619 310.286C6.84619 305.22 54.3403 301.102 112.916 301.102C171.491 301.102 219 305.22 219 310.286Z" fill="#F0EFED"/>
<path d="M157.504 128.398C166.995 128.398 174.689 120.704 174.689 111.213C174.689 101.723 166.995 94.0291 157.504 94.0291C148.014 94.0291 140.32 101.723 140.32 111.213C140.32 120.704 148.014 128.398 157.504 128.398Z" stroke="#F0EFED" stroke-width="0.71" stroke-miterlimit="10"/>
<path d="M32.221 148.619C31.5976 148.011 31.1697 147.231 30.9919 146.378C30.8141 145.525 30.8945 144.639 31.2228 143.833C31.5511 143.026 32.1124 142.336 32.8351 141.849C33.5577 141.363 34.4088 141.104 35.2797 141.104C36.1506 141.104 37.0017 141.363 37.7243 141.849C38.4469 142.336 39.0083 143.026 39.3366 143.833C39.6649 144.639 39.7453 145.525 39.5675 146.378C39.3897 147.231 38.9618 148.011 38.3384 148.619C37.5203 149.417 36.4226 149.864 35.2797 149.864C34.1367 149.864 33.0391 149.417 32.221 148.619Z" stroke="#F0EFED" stroke-width="0.71" stroke-miterlimit="10"/>
<path d="M31.1986 62.253C31.2528 56.7137 26.8062 52.1793 21.2669 52.1251C15.7276 52.071 11.1932 56.5176 11.139 62.0569C11.0849 67.5962 15.5315 72.1306 21.0708 72.1847C26.6101 72.2388 31.1445 67.7922 31.1986 62.253Z" stroke="#F0EFED" stroke-width="0.71" stroke-miterlimit="10"/>
<path d="M38.426 42.1258H35.2432C35.169 42.124 35.096 42.1073 35.0284 42.0767C34.9608 42.0462 34.9001 42.0024 34.8497 41.9479C34.7993 41.8935 34.7604 41.8295 34.7352 41.7598C34.71 41.69 34.699 41.6159 34.703 41.5418V38.14C34.7049 38.0652 34.6921 37.9908 34.6653 37.921C34.6384 37.8512 34.5981 37.7873 34.5466 37.7331C34.495 37.6788 34.4333 37.6353 34.365 37.6049C34.2966 37.5745 34.2229 37.5579 34.1482 37.556V37.556C34.074 37.5579 34.001 37.5746 33.9334 37.6051C33.8658 37.6357 33.8051 37.6795 33.7547 37.7339C33.7043 37.7884 33.6654 37.8523 33.6402 37.9221C33.615 37.9919 33.604 38.066 33.608 38.14V41.5418C33.6099 41.6166 33.5971 41.6911 33.5702 41.7609C33.5434 41.8307 33.5031 41.8946 33.4516 41.9488C33.4 42.003 33.3383 42.0466 33.27 42.077C33.2016 42.1073 33.1279 42.1239 33.0531 42.1258H29.8703C29.7962 42.1277 29.7232 42.1444 29.6556 42.1749C29.588 42.2055 29.5272 42.2493 29.4769 42.3037C29.4265 42.3582 29.3876 42.4222 29.3624 42.4919C29.3372 42.5617 29.3262 42.6358 29.3301 42.7098V42.7098C29.3262 42.7839 29.3372 42.858 29.3624 42.9278C29.3876 42.9975 29.4265 43.0615 29.4769 43.116C29.5272 43.1704 29.588 43.2142 29.6556 43.2448C29.7232 43.2753 29.7962 43.292 29.8703 43.2938H33.0531C33.1279 43.2957 33.2016 43.3124 33.27 43.3427C33.3383 43.3731 33.4 43.4167 33.4516 43.4709C33.5031 43.5251 33.5434 43.589 33.5702 43.6588C33.5971 43.7286 33.6099 43.8031 33.608 43.8779V47.2651C33.604 47.3391 33.615 47.4132 33.6402 47.483C33.6654 47.5527 33.7043 47.6167 33.7547 47.6712C33.8051 47.7256 33.8658 47.7694 33.9334 47.8C34.001 47.8305 34.074 47.8472 34.1482 47.8491V47.8491C34.2229 47.8472 34.2966 47.8306 34.365 47.8002C34.4333 47.7698 34.495 47.7263 34.5466 47.672C34.5981 47.6178 34.6384 47.5539 34.6653 47.4841C34.6921 47.4143 34.7049 47.3399 34.703 47.2651V43.8779C34.699 43.8038 34.71 43.7297 34.7352 43.6599C34.7604 43.5902 34.7993 43.5262 34.8497 43.4717C34.9001 43.4173 34.9608 43.3735 35.0284 43.3429C35.096 43.3124 35.169 43.2957 35.2432 43.2938H38.426C38.5008 43.292 38.5744 43.2753 38.6428 43.245C38.7112 43.2146 38.7729 43.171 38.8244 43.1168C38.8759 43.0626 38.9162 42.9987 38.9431 42.9289C38.9699 42.8591 38.9827 42.7846 38.9808 42.7098C38.9827 42.6351 38.9699 42.5606 38.9431 42.4908C38.9162 42.421 38.8759 42.3571 38.8244 42.3029C38.7729 42.2487 38.7112 42.2051 38.6428 42.1747C38.5744 42.1443 38.5008 42.1277 38.426 42.1258V42.1258Z" fill="#F0EFED"/>
<path d="M197.45 161.321H192.238C192.12 161.321 192.003 161.297 191.894 161.252C191.785 161.206 191.686 161.139 191.603 161.055C191.52 160.971 191.455 160.871 191.411 160.761C191.367 160.651 191.345 160.534 191.347 160.416V155.218C191.347 154.978 191.252 154.748 191.082 154.578C190.912 154.408 190.682 154.313 190.442 154.313V154.313C190.324 154.313 190.207 154.336 190.098 154.382C189.989 154.428 189.89 154.495 189.807 154.579C189.724 154.663 189.659 154.763 189.615 154.873C189.571 154.983 189.55 155.1 189.552 155.218V160.416C189.552 160.656 189.456 160.886 189.286 161.056C189.117 161.226 188.886 161.321 188.646 161.321H183.449C183.33 161.319 183.213 161.341 183.103 161.384C182.994 161.428 182.894 161.494 182.809 161.577C182.725 161.659 182.658 161.758 182.613 161.867C182.567 161.976 182.543 162.093 182.543 162.212V162.212C182.543 162.33 182.567 162.448 182.612 162.558C182.658 162.668 182.725 162.768 182.809 162.852C182.893 162.936 182.992 163.002 183.102 163.048C183.212 163.093 183.33 163.117 183.449 163.117H188.646C188.764 163.115 188.882 163.136 188.992 163.18C189.101 163.224 189.201 163.289 189.286 163.372C189.37 163.455 189.437 163.554 189.482 163.663C189.528 163.772 189.552 163.889 189.552 164.007V169.278C189.55 169.396 189.571 169.514 189.615 169.623C189.659 169.733 189.724 169.833 189.807 169.917C189.89 170.001 189.989 170.068 190.098 170.114C190.207 170.16 190.324 170.183 190.442 170.183V170.183C190.682 170.183 190.912 170.088 191.082 169.918C191.252 169.748 191.347 169.518 191.347 169.278V164.066C191.347 163.83 191.441 163.603 191.608 163.436C191.775 163.269 192.002 163.175 192.238 163.175H197.45C197.69 163.175 197.92 163.08 198.09 162.91C198.26 162.74 198.355 162.51 198.355 162.27V162.27C198.363 162.147 198.346 162.024 198.304 161.908C198.262 161.792 198.196 161.686 198.111 161.597C198.026 161.507 197.923 161.437 197.81 161.389C197.696 161.342 197.573 161.319 197.45 161.321V161.321Z" fill="#F0EFED"/>
<path d="M167.082 63.988C181.605 57.9722 188.502 41.3221 182.486 26.7988C176.47 12.2756 159.82 5.37888 145.297 11.3946C130.773 17.4103 123.877 34.0605 129.892 48.5837C135.908 63.107 152.558 70.0037 167.082 63.988Z" fill="#EFB93F"/>
<path d="M156 64C170.359 64 182 52.3594 182 38C182 23.6406 170.359 12 156 12C141.641 12 130 23.6406 130 38C130 52.3594 141.641 64 156 64Z" fill="white"/>
<path d="M159.047 21C159.275 22.5861 159.409 24.1721 159.561 25.7582C159.714 27.3443 159.771 28.9304 159.847 30.5164C159.961 33.6886 160.038 36.8607 159.981 40.0329V41H159.066C154.362 40.9829 149.664 40.6664 145 40.0522C149.666 39.4543 154.363 39.1443 159.066 39.1238L158.151 40.0522C158.151 36.8801 158.151 33.7079 158.265 30.5358C158.341 28.9497 158.437 27.3636 158.551 25.7776C158.685 24.1721 158.818 22.6248 159.047 21Z" fill="#EFB93F"/>
<path d="M116.975 43.3376C113.982 36.4172 104.93 32.7671 97.5711 34.3586C90.2126 35.95 84.431 42.0382 81.511 48.9586C79.0582 54.9885 78.591 61.6315 76.5178 67.8074C74.7748 73.0931 71.9393 77.9531 68.1957 82.0716C64.7939 85.8239 60.6475 88.9629 57.9756 93.2991C56.2503 96.1203 55.252 99.3256 55.0701 102.628C54.8882 105.93 55.5284 109.225 56.9333 112.219C58.3383 115.212 60.4641 117.811 63.1202 119.781C65.7763 121.751 68.8797 123.031 72.1523 123.507C78.9852 124.5 86.1246 121.944 92.7677 123.813C96.1403 124.762 99.1917 126.733 102.652 127.317C108.653 128.208 114.595 124.062 117.252 118.557C119.909 113.053 119.719 106.76 118.259 100.877C116.799 94.4963 113.879 88.3497 113.587 81.7942C113.295 74.4942 115.047 69.7346 115.69 62.4929C116.245 56.1419 121.179 53.0759 116.975 43.3376Z" fill="#38303B"/>
<path d="M127.37 299.438C127.18 296.956 127.005 294.474 126.83 291.992C126.859 291.004 126.562 290.034 125.983 289.232C124.8 287.918 122.552 288.123 120.698 288.444C120.026 288.487 119.389 288.755 118.887 289.203C118.68 289.531 118.555 289.903 118.522 290.29C118.489 290.676 118.549 291.064 118.697 291.422L121.179 301.467" fill="#F7B094"/>
<path d="M145.576 308.811L132.728 308.986C131.268 308.986 120.289 308.592 118.697 308.592C118.181 308.645 117.663 308.51 117.237 308.212C117.048 307.978 116.911 307.705 116.835 307.413C116.76 307.121 116.747 306.816 116.799 306.519C116.963 304.079 117.454 301.673 118.259 299.365C118.449 298.839 118.712 298.255 119.252 298.109C119.511 298.072 119.774 298.09 120.025 298.16C120.276 298.231 120.51 298.352 120.712 298.518C121.266 298.98 121.935 299.282 122.647 299.393C123.36 299.504 124.089 299.418 124.756 299.146C125.282 299.044 127.341 298.416 127.837 298.226C128.409 298.058 129.017 298.058 129.589 298.226C134.614 299.276 139.479 300.985 144.058 303.307C145.142 303.753 146.082 304.491 146.773 305.438C147.098 305.923 147.229 306.511 147.14 307.087C147.051 307.664 146.748 308.185 146.292 308.548" fill="#E5622C"/>
<path d="M27.5635 281.48L33.6955 277.217C34.4424 276.551 35.4104 276.186 36.4111 276.195C38.2507 276.384 39.6524 278.458 40.689 280.283C41.1208 280.878 41.3602 281.591 41.3752 282.327C41.273 283.173 40.4846 283.582 39.7692 283.889L30.2499 288.079" fill="#F7B094"/>
<path d="M32.1188 307.877L25.9137 296.635C25.2421 295.408 20.4095 285.466 19.6649 284.064C19.3769 283.635 19.2478 283.118 19.2999 282.604C19.4459 282.005 20.0737 281.655 20.6285 281.407C22.8622 280.411 25.2191 279.719 27.6365 279.348C27.9028 279.268 28.184 279.251 28.4579 279.3C28.7317 279.348 28.9904 279.459 29.2133 279.625C29.3614 279.835 29.4661 280.072 29.5213 280.323C29.5764 280.574 29.5809 280.833 29.5345 281.085C29.4323 283.144 29.5345 283.246 30.8777 284.94C31.2135 285.363 32.732 286.882 33.1408 287.232C33.5531 287.667 33.8362 288.208 33.9584 288.794C35.3931 293.722 36.1736 298.818 36.2798 303.949C36.3919 305.113 36.1796 306.286 35.6666 307.336C35.393 307.839 34.9446 308.223 34.4064 308.417C33.8682 308.611 33.2776 308.6 32.7466 308.388" fill="#E5622C"/>
<path d="M90.9427 180.301C98.7391 215.589 105.718 252.645 116.493 287.013C117.354 289.743 118.581 294.445 119.88 294.62C121.576 294.819 123.294 294.731 124.961 294.357C125.635 294.239 126.241 293.875 126.662 293.336C127.083 292.796 127.289 292.119 127.238 291.437C122.333 239.358 123.705 186.959 112.127 136.165C111.719 134.369 88.592 136.91 88.592 136.91" fill="#38303B"/>
<path d="M36.0318 284.21C36.1042 284.422 36.221 284.617 36.3745 284.78C36.528 284.944 36.7146 285.073 36.9219 285.158C37.1292 285.244 37.3523 285.284 37.5765 285.277C37.8007 285.27 38.0206 285.214 38.2218 285.115C50.6173 278.866 61.5819 268.252 70.707 255.024C84.1537 235.592 92.4319 220.174 99.9072 197.062C105.645 179.294 110.507 160.664 108.915 141.947C100.387 142.468 91.8923 143.442 83.4675 144.867C82.8123 144.889 82.1705 145.058 81.5893 145.361C81.0081 145.664 80.5024 146.094 80.1095 146.619C78.9268 147.889 78.2698 151.218 77.9486 152.984C74.3132 173.016 73.5686 192.624 69.32 212.509C64.1078 236.541 52.8657 261.624 34.4988 276.414C34.2437 276.614 34.0574 276.889 33.9658 277.201C33.8742 277.512 33.8819 277.844 33.9878 278.151L36.0318 284.21Z" fill="#48414C"/>
<path d="M73.4517 161.613L74.3715 165.993C74.6347 166.871 75.1847 167.636 75.9337 168.166C76.6826 168.695 77.5873 168.958 78.5033 168.913C91.0399 169.147 103.581 169.244 116.128 169.205C117.115 169.295 118.107 169.087 118.975 168.606C119.52 168.121 119.864 167.449 119.938 166.723C120.391 164.796 120.829 162.869 121.267 160.883" fill="#F7DBA4"/>
<path d="M130.408 154.572C131.779 156.846 136.679 166.591 137.309 169.126C137.939 171.661 138.251 174.785 139.658 177.245C139.928 177.735 140.887 177.504 141.066 177.004C141.425 176.018 141.613 174.978 141.624 173.929C141.628 173.348 142.587 173.043 143.004 173.474C143.307 173.803 143.55 174.182 143.722 174.595C144.703 177.024 145.936 178.821 146.962 181.245C147.426 182.48 148.035 183.655 148.776 184.746C149.107 185.158 149.475 184.758 149.494 184.24C149.514 183.722 149.147 182.063 149.254 182.265C149.361 182.466 150.411 182.509 150.379 181.741C150.2 178.226 149.413 174.769 148.055 171.523C145.476 165.773 138.497 158.246 136.005 152.155" fill="#F7B094"/>
<path d="M102.868 106.309C108.736 124.262 117.717 141.042 129.401 155.882C130.704 157.559 131.626 158.917 133.348 158.817C135.749 158.682 139.754 157.376 138.666 154.82C133.395 142.728 126.041 128.691 124.526 116.898C124.073 111.508 123.313 106.147 122.252 100.843C120.939 95.3886 118.627 89.0827 114.225 84.903" fill="#EFB93F"/>
<path d="M77.89 165.993C75.189 165.993 73.0866 163.35 72.6924 160.664C72.2982 157.978 75.3788 152.211 74.97 149.407C74.4006 145.436 70.736 110.206 78.6784 91.0069C80.4889 86.6269 83.4965 82.2469 88.0809 81.0935C90.5423 80.6793 93.0512 80.6301 95.5269 80.9475C100.725 81.1811 106.243 80.4073 110.886 82.7433C118.814 86.7145 120.186 97.2412 120.537 106.103C120.829 113.491 121.126 120.884 121.427 128.281C121.793 137.494 124.917 145.947 122.085 153.32C121.252 155.496 124.172 161.774 122.654 163.54C121.136 165.307 116.507 164.752 113.894 164.825L81.7737 165.672" fill="#DFA935"/>
<path d="M140.335 85.3275L139.55 84.5428C139.26 84.2519 138.788 84.2519 138.497 84.5426L123.246 99.7882C122.956 100.079 122.955 100.55 123.246 100.841L124.031 101.626C124.321 101.917 124.793 101.917 125.084 101.626L140.335 86.3806C140.625 86.0898 140.626 85.6184 140.335 85.3275Z" fill="#38303B"/>
<path d="M97.8192 141.538C95.454 143.509 89.2198 146.692 86.6794 148.415C84.7814 149.714 81.4963 148.415 78.8099 145.363C76.9703 143.304 75.5395 139.202 74.7803 136.603C73.3867 130.68 72.6909 124.613 72.7071 118.528C72.678 111.42 73.2642 104.322 74.4591 97.3142C75.3059 91.4741 79.6421 83.5609 83.92 81.9841C90.0958 79.7065 92.68 82.3053 93.483 91.4157C94.0232 97.942 92.4464 103.461 91.2784 114.484C90.7528 119.463 90.0958 128.412 90.0958 128.412L97.8192 141.538Z" fill="#EFB93F"/>
<path d="M108.857 114.367C112.638 110.535 116.146 106.441 119.354 102.118C120.814 99.6502 121.807 96.92 123.734 94.9198C124.129 94.5256 124.975 94.9198 124.99 95.5184C125.047 96.551 124.939 97.5861 124.669 98.5844C124.508 99.1538 126.552 99.7816 127.078 99.475C127.603 99.1684 133.954 92.7006 134.115 92.54C134.276 92.3794 135.268 92.54 135.035 93.3138C133.895 96.6368 132.207 99.7458 130.042 102.512C126.027 107.374 117.413 112.834 113.398 118.032" fill="#F7B094"/>
<path d="M86.4458 148.312C89.4826 147.801 96.0235 143.728 98.8559 140.457C103.324 135.289 117.559 118.557 117.953 115.754C118.113 114.557 114.274 111.068 112.77 109.491C111.879 108.542 104.302 117.156 100.301 120.528C99.0603 121.58 91.7894 127.098 88.3438 129.42" fill="#EFB93F"/>
<path d="M84.4165 129.858C91.0449 128.748 98.0238 123.682 111.237 110.06C111.348 109.947 111.481 109.856 111.628 109.795C111.775 109.733 111.932 109.702 112.091 109.702C112.25 109.702 112.407 109.733 112.554 109.795C112.701 109.856 112.834 109.947 112.945 110.06L117.88 115.126" stroke="#38303B" stroke-width="0.28" stroke-miterlimit="10"/>
<path d="M89.1614 128.223C87.5118 127.16 85.6558 126.458 83.7156 126.164" stroke="#38303B" stroke-width="0.28" stroke-miterlimit="10"/>
<path d="M94.1109 79.2101C95.0599 75.5893 96.4323 70.2602 97.0309 67.822C97.2937 66.8146 97.5565 65.8218 97.8631 64.8144C97.9044 64.5891 98.011 64.3809 98.1697 64.2158C98.2926 64.1145 98.4487 64.0625 98.6077 64.0698C100.068 64.0698 101.221 65.3108 102.506 66.0262C104.083 66.9022 105.952 66.946 107.558 67.749C107.667 67.7847 107.767 67.8476 107.846 67.9318C107.925 68.016 107.981 68.1189 108.01 68.2308C108.039 68.3951 108.039 68.563 108.01 68.7272C107.455 71.6472 106.842 79.7357 106.463 83.4879C106.258 85.5757 102.506 86.6999 98.7391 85.5757C94.2423 84.2179 93.7459 80.6409 94.1109 79.2101Z" fill="#F7B094"/>
<path d="M98.228 64.1573C98.3508 64.0561 98.5069 64.004 98.666 64.0113C100.126 64.0113 101.279 65.2523 102.564 65.9677C104.141 66.8437 106.01 66.8875 107.616 67.6905C107.726 67.7262 107.825 67.7891 107.904 67.8734C107.983 67.9576 108.04 68.0604 108.068 68.1723C108.097 68.3366 108.097 68.5045 108.068 68.6688C107.762 70.304 107.441 71.9538 107.134 73.589C105.496 74.3394 103.669 74.5785 101.893 74.2752C100.654 73.9744 99.5202 73.3429 98.6125 72.4481C97.7048 71.5532 97.0571 70.4286 96.7388 69.1944C96.8556 68.7126 96.987 68.2454 97.1184 67.7343C97.3812 66.7269 97.644 65.7341 97.9506 64.7267C97.9888 64.515 98.0848 64.318 98.228 64.1573V64.1573Z" fill="#E89C82"/>
<path d="M94.5782 61.617C92.432 61.2374 90.5194 60.0694 90.1106 58.4487C89.7018 56.8281 91.4538 54.9739 93.6584 54.9009" fill="#F7B094"/>
<path d="M94.3737 61.7629C96.6367 69.8806 102.375 70.9172 108.375 72.8444C109.661 73.2066 111.002 73.3304 112.332 73.2094C115.106 72.9174 116.347 70.2894 116.887 68.041C117.851 64.1678 118.342 60.1917 118.347 56.2003C118.47 53.4033 117.898 50.6193 116.683 48.0972C115.946 46.7251 114.905 45.5395 113.64 44.6311C112.374 43.7226 110.918 43.1154 109.383 42.8558C107.39 42.6542 105.378 42.898 103.492 43.5697C101.606 44.2414 99.8926 45.3241 98.4763 46.7394C94.4467 50.5062 92.3881 55.8791 94.0963 60.7263" fill="#F7B094"/>
<path d="M118.259 56.0689C118.191 57.2577 118.309 58.45 118.61 59.6021C118.771 60.3734 119.188 61.0678 119.792 61.5731C119.957 61.6802 120.096 61.8219 120.2 61.9885C120.304 62.1551 120.37 62.3424 120.394 62.5372C120.417 62.7321 120.398 62.9298 120.337 63.1163C120.276 63.3029 120.175 63.4739 120.041 63.6172C119.741 63.9158 119.351 64.1059 118.931 64.1574C118.628 64.2323 118.309 64.2154 118.015 64.1088C117.721 64.0022 117.466 63.8108 117.281 63.5588" fill="#F7B094"/>
<path d="M88.4897 55.6163C94.3767 54.9253 100.076 53.1113 105.28 50.2727C107.639 49.2 109.79 47.717 111.631 45.8926C112.521 44.8852 113.179 43.5128 112.375 42.4324C111.572 41.352 109.455 41.0746 107.747 41.1768C106.521 41.2498 105.309 41.3666 104.097 41.5564C102.075 41.8104 100.105 42.3768 98.2572 43.2354C96.3834 44.2614 94.6834 45.577 93.2202 47.1336C91.7602 48.5937 90.1104 50.2289 89.906 52.1707" fill="#38303B"/>
<path d="M109.499 51.6451C109.412 51.6451 109.499 51.8203 109.645 51.8203C109.766 51.8261 109.887 51.801 109.996 51.7473C111.431 51.1937 113.003 51.1019 114.493 51.4845C114.715 51.5529 114.946 51.5921 115.179 51.6013C115.412 51.6013 115.675 51.4699 115.661 51.3093C115.657 51.2725 115.646 51.2367 115.629 51.2041C115.611 51.1715 115.587 51.1427 115.558 51.1195C115.268 50.8658 114.915 50.6945 114.536 50.6231C113.193 50.288 111.778 50.3851 110.492 50.9005C110.069 51.0423 109.705 51.3194 109.456 51.6889" fill="#2E3C87"/>
<g opacity="0.54">
<path opacity="0.54" d="M103.177 61.325C103.204 62.2494 103.589 63.1273 104.251 63.7731C104.913 64.4188 105.8 64.7818 106.725 64.7852C107.176 64.825 107.63 64.7741 108.061 64.6355C108.492 64.4968 108.891 64.2732 109.234 63.9778C109.577 63.6825 109.857 63.3214 110.058 62.9159C110.259 62.5104 110.377 62.0687 110.405 61.617C110.382 60.6913 109.998 59.8112 109.335 59.1647C108.672 58.5182 107.783 58.1564 106.857 58.1567C106.405 58.1148 105.95 58.1643 105.519 58.3022C105.087 58.44 104.687 58.6635 104.344 58.9592C104.001 59.2549 103.72 59.6169 103.52 60.0233C103.319 60.4298 103.203 60.8725 103.177 61.325V61.325Z" fill="#ED825D"/>
</g>
<path d="M112.419 55.7185C112.419 56.6967 112.989 57.4705 113.558 57.4559C114.128 57.4413 114.566 56.6237 114.507 55.6601C114.449 54.6965 113.879 53.9373 113.295 53.9373C112.711 53.9373 112.303 54.7549 112.419 55.7185Z" fill="#2E3C87"/>
</svg>
