<svg width="20" height="19" viewBox="0 0 20 19" fill="none" xmlns="http://www.w3.org/2000/svg">
<path d="M1.06068 18.3389C0.474891 17.7531 0.474891 16.8033 1.06068 16.2176L16.617 0.661203C17.2028 0.0754162 18.1526 0.0754162 18.7383 0.661203C19.3241 1.24699 19.3241 2.19674 18.7383 2.78252L3.182 18.3389C2.59621 18.9247 1.64646 18.9247 1.06068 18.3389Z" fill="black"/>
<path d="M18.9394 18.3389C19.5251 17.7531 19.5251 16.8033 18.9394 16.2176L3.38301 0.661203C2.79722 0.0754162 1.84747 0.0754162 1.26169 0.661203C0.675902 1.24699 0.675902 2.19674 1.26169 2.78252L16.818 18.3389C17.4038 18.9247 18.3536 18.9247 18.9394 18.3389Z" fill="black"/>
</svg>
