<svg width="56" height="74" viewBox="0 0 56 74" fill="none" xmlns="http://www.w3.org/2000/svg">
<path d="M51.8914 19.725L27.5908 67.8399L25.5391 68.5146L19.1998 70.5993L18.9719 70.6597L5.74161 63.9777L5.3783 62.8729L5.10149 62.0312L4.96308 61.6103L4.09805 58.9799L3.9683 58.5853L3.8472 58.2171C3.77246 57.9307 3.68596 57.6677 3.58768 57.428L2.89548 55.3674L27.196 7.25259C27.8536 7.03634 28.4413 6.78477 29.0202 6.55068C30.1958 6.00377 31.2137 5.46498 32.2929 4.93519C32.9624 4.64218 33.6582 4.41337 34.3709 4.25182C34.7038 4.16045 35.0438 4.09738 35.3874 4.06328C35.5117 4.04063 35.6389 4.03819 35.7639 4.05604C36.1174 4.04486 36.4712 4.05506 36.8233 4.08658C41.2829 4.91372 45.4128 6.99951 48.7253 10.0977L48.9432 10.3613C49.1323 10.5881 49.304 10.8288 49.4569 11.0814C49.6604 11.4075 49.8405 11.7477 49.9957 12.0993C50.1746 12.4603 50.3225 12.8359 50.4378 13.2219C50.5414 13.5813 50.645 13.9408 50.7223 14.3089C50.7997 14.6769 50.8681 15.0625 50.9366 15.4481C51.0051 15.8336 51.2106 16.9903 51.3647 17.8578C51.4899 18.4889 51.6511 19.1122 51.8476 19.7249L51.8914 19.725Z" fill="#FDBF5A"/>
<g style="mix-blend-mode:multiply" opacity="0.3">
<path d="M30.6874 20.8396C30.7478 21.0676 29.7048 21.3085 29.7048 21.3085L30.2619 17.7732C30.7474 14.6403 31.4753 10.0286 32.0231 6.64211C32.1131 6.02953 32.203 5.46072 32.2927 4.9357C32.9622 4.64269 33.658 4.41387 34.3707 4.25233C34.7036 4.16096 35.0437 4.09789 35.3872 4.06379C35.2725 4.29099 35.1577 4.51819 35.1651 4.85097C34.2051 8.4022 32.386 14.3492 31.4875 17.8657C30.9637 19.6411 30.6701 20.787 30.6874 20.8396Z" fill="#F7A27E"/>
</g>
<g style="mix-blend-mode:multiply" opacity="0.3">
<path d="M50.4899 13.2489C50.1382 13.5977 49.7426 13.9902 49.3205 14.435L41.0823 22.7116C39.4031 24.3861 38.1984 25.6422 38.1984 25.6422C38.1984 25.6422 37.7733 24.6597 37.9925 24.573C38.2118 24.4864 38.8901 23.4909 40.1223 21.9197C42.7455 18.5065 47.0765 12.8411 48.9429 10.3618C49.132 10.5886 49.3037 10.8293 49.4566 11.0819C49.6601 11.408 49.8401 11.7481 49.9954 12.0998C50.1937 12.4675 50.3591 12.8521 50.4899 13.2489Z" fill="#F7A27E"/>
</g>
<path d="M21.9669 29.2456L25.4279 17.8324C29.2397 17.3028 33.1223 17.9486 36.5574 19.6835C39.9925 21.4185 42.8167 24.16 44.6529 27.542L37.4325 37.4952L21.9669 29.2456Z" fill="black"/>
<path d="M21.9669 29.2456L25.4279 17.8324C29.2397 17.3028 33.1223 17.9486 36.5574 19.6835C39.9925 21.4185 42.8167 24.16 44.6529 27.542L37.4325 37.4952L21.9669 29.2456Z" fill="black"/>
<path d="M21.9669 29.2456L25.4279 17.8324C29.2397 17.3028 33.1223 17.9486 36.5574 19.6835C39.9925 21.4185 42.8167 24.16 44.6529 27.542L37.4325 37.4952L21.9669 29.2456Z" fill="url(#paint0_linear_1_239)"/>
<path d="M26.345 64.0526C26.2655 64.2099 24.3148 68.0723 17.3239 64.5415L12.1506 61.9288C5.15973 58.398 7.0231 54.4914 7.10254 54.3341L26.345 64.0526Z" fill="#13151A"/>
<g style="mix-blend-mode:screen">
<path style="mix-blend-mode:screen" d="M26.345 64.0526C26.2655 64.2099 24.3148 68.0723 17.3239 64.5415L12.1506 61.9288C5.15973 58.398 7.0231 54.4914 7.10254 54.3341L26.345 64.0526Z" fill="url(#paint1_linear_1_239)"/>
</g>
<path d="M19.1512 54.3651L18.2249 53.8973L18.2338 53.8798L19.1512 54.3651Z" fill="#FDBF5A"/>
<path d="M26.345 64.0526C25.63 65.4682 6.40506 55.7586 7.12004 54.3429L10.5082 50.1535L18.2599 53.915L20.095 54.8419L27.7232 58.8481L26.345 64.0526Z" fill="#FDBF5A"/>
<path d="M20.1037 54.8244L20.0949 54.8418L19.1511 54.3652L20.1037 54.8244Z" fill="#FDBF5A"/>
<path d="M10.3071 50.0301L9.29451 47.0839L17.8722 30.6214L21.8415 27.8003L10.3071 50.0301Z" fill="#1B1B1B"/>
<path d="M10.3071 50.0301L9.29451 47.0839L17.8722 30.6214L21.8415 27.8003L10.3071 50.0301Z" fill="url(#paint2_linear_1_239)"/>
<path d="M17.2047 39.8041L12.8472 39.0072L14.7362 35.2671L17.9638 38.3011L17.2047 39.8041Z" fill="#FDBF5A"/>
<path d="M28.0466 58.9895L31.0363 58.0646L39.177 41.3814L39.0916 36.5125L28.0466 58.9895Z" fill="#1B1B1B"/>
<path d="M28.0466 58.9895L31.0363 58.0646L39.177 41.3814L39.0916 36.5125L28.0466 58.9895Z" fill="url(#paint3_linear_1_239)"/>
<path d="M32.2003 47.3776L35.4104 50.4028L37.2994 46.6627L32.9594 45.8746L32.2003 47.3776Z" fill="#FDBF5A"/>
<path d="M27.7321 58.8306C26.8494 60.5783 9.58188 51.8573 10.4646 50.1096L21.7895 27.6863C21.9534 27.3618 22.2395 27.1158 22.5848 27.0022C22.9301 26.8886 23.3063 26.9169 23.6308 27.0808L38.434 34.5572C38.5973 34.6368 38.7432 34.748 38.8631 34.8844C38.983 35.0208 39.0746 35.1798 39.1326 35.3519C39.1906 35.5241 39.2137 35.706 39.2008 35.8872C39.1878 36.0684 39.1389 36.2452 39.057 36.4073L27.7321 58.8306Z" fill="#FDBF5A"/>
<path d="M5.67219 63.7678L3.58747 57.4285C4.23963 57.5582 4.8384 57.8792 5.30746 58.3505C5.77652 58.8218 6.09462 59.4221 6.22123 60.0748C6.49662 60.6776 6.59133 61.3472 6.49388 62.0027C6.39643 62.6581 6.11101 63.2713 5.67219 63.7678Z" fill="#FF7910"/>
<path d="M25.5389 68.515L19.1996 70.5998C19.3387 69.9519 19.6628 69.3583 20.1325 68.8908C20.6022 68.4233 21.1973 68.1021 21.8459 67.966C22.4464 67.6805 23.1183 67.5802 23.776 67.678C24.4337 67.7758 25.0474 68.0672 25.5389 68.515Z" fill="#FF7910"/>
<path d="M51.3997 17.8322C50.4602 17.0946 49.7753 16.0814 49.4412 14.9347L49.2857 14.4174C48.909 13.3205 48.9512 12.123 49.4043 11.0554C49.6078 11.3815 49.7879 11.7217 49.9431 12.0733C50.122 12.4343 50.2699 12.8099 50.3851 13.1959C50.4888 13.5554 50.5924 13.9148 50.6697 14.2829C50.747 14.651 50.8155 15.0365 50.884 15.4221C50.9525 15.8076 51.2279 16.9996 51.3997 17.8322Z" fill="#F7A27E"/>
<path d="M35.235 4.88619C34.5168 5.60874 33.6299 6.14086 32.6544 6.43442L32.0319 6.62455C31.0439 6.89225 29.9987 6.8606 29.0288 6.53363C30.2044 5.98672 31.2223 5.44793 32.3015 4.91814C32.971 4.62513 33.6668 4.39631 34.3795 4.23476C34.71 4.14978 35.0471 4.09256 35.3872 4.0637C35.5115 4.04105 35.6386 4.03861 35.7637 4.05646C35.6445 4.36549 35.4647 4.64759 35.235 4.88619Z" fill="#F7A27E"/>
<defs>
<linearGradient id="paint0_linear_1_239" x1="23.4948" y1="21.6599" x2="42.7373" y2="31.3784" gradientUnits="userSpaceOnUse">
<stop stop-color="white" stop-opacity="0.3"/>
<stop offset="0.21" stop-color="#E1E1E1" stop-opacity="0.26"/>
<stop offset="0.55" stop-color="#8E8E8E" stop-opacity="0.17"/>
<stop offset="0.97" stop-color="#090909" stop-opacity="0.01"/>
<stop offset="1" stop-opacity="0"/>
</linearGradient>
<linearGradient id="paint1_linear_1_239" x1="-24.298" y1="196.841" x2="187.561" y2="303.842" gradientUnits="userSpaceOnUse">
<stop stop-color="white" stop-opacity="0.3"/>
<stop offset="0.21" stop-color="#E1E1E1" stop-opacity="0.26"/>
<stop offset="0.55" stop-color="#8E8E8E" stop-opacity="0.17"/>
<stop offset="0.97" stop-color="#090909" stop-opacity="0.01"/>
<stop offset="1" stop-opacity="0"/>
</linearGradient>
<linearGradient id="paint2_linear_1_239" x1="-216.844" y1="500.34" x2="-214.092" y2="501.729" gradientUnits="userSpaceOnUse">
<stop stop-color="white" stop-opacity="0.3"/>
<stop offset="0.21" stop-color="#E1E1E1" stop-opacity="0.26"/>
<stop offset="0.55" stop-color="#8E8E8E" stop-opacity="0.17"/>
<stop offset="0.97" stop-color="#090909" stop-opacity="0.01"/>
<stop offset="1" stop-opacity="0"/>
</linearGradient>
<linearGradient id="paint3_linear_1_239" x1="-169.811" y1="524.094" x2="-171.75" y2="523.114" gradientUnits="userSpaceOnUse">
<stop stop-color="white" stop-opacity="0.3"/>
<stop offset="0.21" stop-color="#E1E1E1" stop-opacity="0.26"/>
<stop offset="0.55" stop-color="#8E8E8E" stop-opacity="0.17"/>
<stop offset="0.97" stop-color="#090909" stop-opacity="0.01"/>
<stop offset="1" stop-opacity="0"/>
</linearGradient>
</defs>
</svg>
