<svg width="228" height="302" viewBox="0 0 228 302" fill="none" xmlns="http://www.w3.org/2000/svg">
<path d="M158.136 104.119C162.424 103.818 166.712 103.689 171 103.575C175.287 103.46 179.575 103.417 183.863 103.403C188.151 103.389 192.439 103.403 196.727 103.575L203.159 103.775C205.302 103.89 207.446 103.962 209.605 104.119C207.446 104.277 205.317 104.348 203.159 104.477L196.727 104.678C192.439 104.807 188.151 104.821 183.863 104.835C179.575 104.85 175.287 104.835 171 104.664C166.712 104.492 162.424 104.42 158.136 104.119Z" fill="#F0EFED"/>
<path d="M187.551 113.932C191.23 113.413 194.941 113.159 198.656 113.173C202.352 113.133 206.045 113.373 209.705 113.889C206.045 114.406 202.352 114.645 198.656 114.606C194.943 114.648 191.232 114.423 187.551 113.932Z" fill="#F0EFED"/>
<path d="M193.368 51.1571C202.848 51.1571 210.534 43.1141 210.534 33.1926C210.534 23.2712 202.848 15.2282 193.368 15.2282C183.888 15.2282 176.202 23.2712 176.202 33.1926C176.202 43.1141 183.888 51.1571 193.368 51.1571Z" stroke="#F0EFED" stroke-width="0.71" stroke-miterlimit="10"/>
<path d="M151.747 64.6662H146.73C146.498 64.6587 146.277 64.5599 146.117 64.391C145.957 64.2221 145.869 63.9968 145.873 63.7637V58.5348C145.877 58.3016 145.789 58.0763 145.628 57.9074C145.468 57.7386 145.248 57.6398 145.015 57.6323C144.899 57.6341 144.784 57.659 144.677 57.7053C144.57 57.7517 144.474 57.8187 144.393 57.9025C144.312 57.9863 144.248 58.0853 144.205 58.1938C144.162 58.3023 144.141 58.4181 144.143 58.5348V63.7637C144.147 63.9968 144.059 64.2221 143.899 64.391C143.738 64.5599 143.518 64.6587 143.286 64.6662H138.283C138.167 64.668 138.052 64.6929 137.945 64.7392C137.838 64.7856 137.742 64.8526 137.661 64.9364C137.58 65.0202 137.516 65.1192 137.473 65.2277C137.43 65.3362 137.409 65.4521 137.411 65.5687C137.407 65.8057 137.497 66.0346 137.66 66.2062C137.823 66.3777 138.047 66.4781 138.283 66.4855H143.286C143.518 66.493 143.738 66.5919 143.899 66.7607C144.059 66.9296 144.147 67.1549 144.143 67.3881V72.6169C144.141 72.7336 144.162 72.8495 144.205 72.9579C144.248 73.0664 144.312 73.1654 144.393 73.2492C144.474 73.333 144.57 73.4 144.677 73.4464C144.784 73.4928 144.899 73.5176 145.015 73.5195C145.248 73.512 145.468 73.4131 145.628 73.2443C145.789 73.0754 145.877 72.8501 145.873 72.6169V67.3308C145.869 67.0976 145.957 66.8723 146.117 66.7034C146.277 66.5346 146.498 66.4357 146.73 66.4282H151.747C151.863 66.4245 151.978 66.3979 152.084 66.3498C152.19 66.3017 152.286 66.2331 152.365 66.148C152.445 66.0628 152.507 65.9628 152.548 65.8535C152.589 65.7443 152.608 65.6281 152.605 65.5114C152.594 65.2882 152.5 65.0773 152.341 64.9206C152.182 64.764 151.97 64.6731 151.747 64.6662Z" fill="#F0EFED"/>
<path d="M212.192 156.451H206.989C206.745 156.443 206.514 156.34 206.345 156.163C206.177 155.986 206.085 155.75 206.089 155.505V150.062C206.092 149.821 206.002 149.588 205.836 149.414C205.67 149.24 205.443 149.138 205.202 149.13C205.082 149.132 204.964 149.158 204.853 149.206C204.743 149.254 204.643 149.323 204.56 149.409C204.476 149.496 204.41 149.598 204.366 149.71C204.322 149.822 204.3 149.941 204.302 150.062V155.505C204.306 155.75 204.214 155.986 204.045 156.163C203.877 156.34 203.645 156.443 203.402 156.451H198.199C197.959 156.458 197.731 156.56 197.565 156.734C197.4 156.909 197.309 157.141 197.313 157.382C197.309 157.624 197.399 157.858 197.565 158.035C197.73 158.211 197.958 158.316 198.199 158.328H203.402C203.522 158.329 203.64 158.355 203.75 158.403C203.861 158.451 203.961 158.52 204.044 158.606C204.128 158.693 204.194 158.795 204.238 158.907C204.282 159.019 204.304 159.138 204.302 159.259V164.745C204.3 164.866 204.322 164.985 204.366 165.097C204.41 165.209 204.476 165.312 204.56 165.398C204.643 165.484 204.743 165.554 204.853 165.601C204.964 165.649 205.082 165.675 205.202 165.677C205.443 165.669 205.67 165.567 205.836 165.393C206.002 165.219 206.092 164.986 206.089 164.745V159.302C206.087 159.181 206.108 159.062 206.153 158.95C206.197 158.838 206.263 158.736 206.346 158.649C206.43 158.563 206.53 158.494 206.64 158.446C206.75 158.398 206.869 158.372 206.989 158.371H212.192C212.436 158.363 212.667 158.26 212.835 158.083C213.004 157.906 213.096 157.67 213.092 157.425C213.1 157.301 213.082 157.177 213.041 157.06C212.999 156.943 212.934 156.836 212.85 156.745C212.766 156.653 212.664 156.58 212.551 156.53C212.438 156.48 212.316 156.453 212.192 156.451Z" fill="#F0EFED"/>
<path d="M64.7749 0.716285C61.0016 1.01712 57.2283 1.14606 53.4693 1.26066C49.7102 1.37527 45.9226 1.43257 42.1636 1.43257C38.4046 1.43257 34.617 1.43257 30.8436 1.26066L25.1979 1.0601C23.3113 0.945496 21.4246 0.873867 19.538 0.716285C21.4246 0.558702 23.3113 0.487074 25.2551 0.358142L30.8436 0.171908C34.617 0 38.3903 0 42.1636 0C45.9369 0 49.6959 0 53.4693 0.171908C57.2426 0.343817 61.0016 0.415445 64.7749 0.716285Z" fill="#F0EFED"/>
<path d="M38.9334 11.7041C35.7247 12.2198 32.4779 12.4594 29.2285 12.4204C25.9838 12.4599 22.7418 12.2203 19.538 11.7041C22.7434 11.2021 25.9843 10.9626 29.2285 10.9878C32.4775 10.9629 35.7231 11.2025 38.9334 11.7041Z" fill="#F0EFED"/>
<path d="M42.578 42.3038C41.6012 41.2623 41.0574 39.8867 41.0574 38.4573C41.0574 37.0279 41.6012 35.6523 42.578 34.6109C43.0497 34.1088 43.619 33.7087 44.2507 33.4352C44.8824 33.1617 45.5632 33.0206 46.2513 33.0206C46.9394 33.0206 47.6202 33.1617 48.2519 33.4352C48.8836 33.7087 49.4528 34.1088 49.9246 34.6109C50.9014 35.6523 51.4452 37.0279 51.4452 38.4573C51.4452 39.8867 50.9014 41.2623 49.9246 42.3038C49.4528 42.8059 48.8836 43.206 48.2519 43.4795C47.6202 43.753 46.9394 43.8941 46.2513 43.8941C45.5632 43.8941 44.8824 43.753 44.2507 43.4795C43.619 43.206 43.0497 42.8059 42.578 42.3038V42.3038Z" stroke="#F0EFED" stroke-width="0.71" stroke-miterlimit="10"/>
<path d="M17.8084 156.422C21.6764 156.422 24.812 153.145 24.812 149.102C24.812 145.059 21.6764 141.781 17.8084 141.781C13.9405 141.781 10.8049 145.059 10.8049 149.102C10.8049 153.145 13.9405 156.422 17.8084 156.422Z" stroke="#F0EFED" stroke-width="0.71" stroke-miterlimit="10"/>
<path d="M33.2305 122.47H29.3857C29.2975 122.468 29.2105 122.449 29.1297 122.414C29.0489 122.378 28.9759 122.327 28.9149 122.263C28.8538 122.199 28.8059 122.124 28.7739 122.042C28.7419 121.959 28.7264 121.871 28.7283 121.783V117.757C28.7302 117.669 28.7147 117.581 28.6826 117.498C28.6506 117.416 28.6027 117.341 28.5417 117.277C28.4806 117.213 28.4076 117.162 28.3268 117.126C28.246 117.091 28.159 117.071 28.0708 117.07C27.9814 117.07 27.8928 117.087 27.8104 117.122C27.7279 117.157 27.6532 117.208 27.5907 117.272C27.5281 117.336 27.4789 117.412 27.446 117.495C27.4131 117.578 27.3971 117.668 27.399 117.757V121.768C27.4029 121.857 27.3887 121.946 27.3574 122.029C27.3261 122.113 27.2783 122.189 27.2169 122.253C27.1554 122.317 27.0816 122.368 26.9999 122.403C26.9182 122.438 26.8303 122.456 26.7415 122.456H22.8539C22.7644 122.458 22.6762 122.478 22.5945 122.514C22.5127 122.551 22.439 122.603 22.3778 122.668C22.3166 122.734 22.269 122.811 22.2378 122.895C22.2067 122.979 22.1926 123.068 22.1964 123.158C22.1945 123.246 22.21 123.334 22.242 123.417C22.2741 123.499 22.322 123.574 22.383 123.638C22.4441 123.702 22.5171 123.753 22.5979 123.789C22.6787 123.824 22.7657 123.844 22.8539 123.846H26.6987C26.7881 123.847 26.8763 123.867 26.9581 123.904C27.0398 123.94 27.1135 123.993 27.1748 124.058C27.236 124.123 27.2836 124.2 27.3147 124.284C27.3459 124.369 27.36 124.458 27.3561 124.548V128.559C27.3542 128.649 27.3701 128.739 27.4029 128.823C27.4356 128.907 27.4846 128.984 27.5469 129.049C27.6093 129.114 27.6839 129.167 27.7664 129.203C27.849 129.239 27.9378 129.259 28.0279 129.261C28.2074 129.253 28.3767 129.176 28.4997 129.044C28.6226 128.913 28.6893 128.739 28.6854 128.559V124.634C28.6815 124.454 28.7482 124.279 28.8711 124.148C28.994 124.017 29.1634 123.939 29.3429 123.932H33.1876C33.3671 123.928 33.538 123.854 33.6635 123.725C33.7891 123.597 33.8594 123.424 33.8594 123.244C33.8713 123.151 33.8643 123.057 33.8387 122.967C33.8132 122.878 33.7697 122.794 33.7108 122.722C33.652 122.649 33.5791 122.59 33.4965 122.546C33.4139 122.503 33.3234 122.477 33.2305 122.47Z" fill="#F0EFED"/>
<path d="M184.178 203.511C184.091 202.799 184.144 202.078 184.336 201.387C184.527 200.696 184.852 200.05 185.292 199.485C185.621 199.17 185.493 199.056 185.55 199.485C185.546 199.843 185.463 200.195 185.307 200.517C185 201.244 184.507 201.876 183.877 202.35C183.773 202.466 183.709 202.611 183.693 202.765C183.677 202.92 183.71 203.075 183.788 203.209C183.866 203.343 183.985 203.449 184.127 203.511C184.269 203.573 184.427 203.588 184.578 203.554C185.049 203.396 187.551 202.694 187.251 203.554C186.95 204.413 184.392 203.554 183.806 203.425C182.92 203.196 182.534 204.585 183.42 204.857C184.764 205.187 189.223 206.29 189.137 203.697C189.051 201.104 185.721 201.663 184.22 202.179L184.907 203.368C185.964 202.465 188.494 198.368 186.021 197.637C184.864 197.308 183.992 198.683 183.534 199.528C182.897 200.759 182.61 202.142 182.705 203.525C182.705 204.428 184.135 204.442 184.135 203.525L184.178 203.511Z" fill="#EFB93F"/>
<path d="M174.687 189.73L181.29 172.08C181.339 171.948 181.351 171.805 181.324 171.666C181.297 171.528 181.234 171.4 181.139 171.295C181.045 171.19 180.924 171.113 180.79 171.072C180.655 171.032 180.512 171.028 180.376 171.063C175.416 172.267 171.586 174.272 166.411 175.361" fill="#A67853"/>
<path d="M207.232 280.497C216.201 260.372 218.848 237.987 214.822 216.318C217.999 224.323 220.081 232.723 221.01 241.288C223.135 239.648 224.909 237.597 226.227 235.257C227.022 243.128 225.832 251.073 222.768 258.364L228 256.459C226.843 262.704 224.244 268.591 220.41 273.649C221.873 273.91 223.38 273.678 224.698 272.99C223.47 277.856 220.551 282.123 216.465 285.024L219.867 287.689C218.361 289.444 216.474 290.829 214.351 291.738C212.227 292.647 209.924 293.055 207.618 292.932" fill="#A67853"/>
<path d="M197.298 300.224L206.846 294.894L210.076 290.024C210.076 290.024 210.491 284.48 206.088 268.535C205.831 267.618 178.246 187.538 178.246 187.538C177.93 183.751 176.399 180.169 173.882 177.328C171.364 174.487 167.996 172.54 164.282 171.779C155.963 170.261 151.047 176.306 139.126 172.94C136.782 172.281 134.167 171.221 132.051 172.424C131.221 172.98 130.583 173.779 130.225 174.713C129.867 175.647 129.806 176.669 130.05 177.639C130.613 179.562 131.703 181.289 133.195 182.624C137.225 186.635 145.658 191.219 150.346 194.514C155.034 197.809 156.664 198.64 158.322 204.098C159.522 208.038 158.622 213.539 158.136 217.636C155.006 244.196 148.86 270.483 148.545 297.23C148.545 298.39 149.174 301.126 150.318 301.198C155.234 301.499 158.893 301.513 160.323 301.499C174.172 301.312 180.99 301.284 194.84 301.112C195.438 301.156 196.037 301.032 196.569 300.754" fill="#B5845B"/>
<g opacity="0.65">
<path opacity="0.65" d="M187.808 255.356C185.729 254.743 183.539 254.605 181.399 254.952C179.26 255.299 177.225 256.122 175.445 257.361C171.896 259.89 169.123 263.364 167.441 267.389C164.339 274.294 163.739 282.531 166.912 289.408C165.353 289.258 163.781 289.425 162.288 289.897C160.795 290.37 159.412 291.139 158.222 292.158C162.295 277.016 167.741 262.175 169.513 246.603V246.445C162.262 264.282 156.432 282.667 152.076 301.427H152.919C153.762 301.427 155.106 301.585 155.949 301.57L184.449 301.212C184.698 299.836 184.539 298.416 183.992 297.129C181.705 289.966 179.275 282.718 179.189 275.225C179.104 267.733 181.719 259.739 187.808 255.356Z" fill="#886244"/>
</g>
<path d="M210.091 290.181C209.786 293.293 208.903 296.32 207.489 299.106C207.272 299.666 206.91 300.157 206.44 300.53C205.97 300.902 205.41 301.143 204.817 301.226C195.412 301.513 157.964 302.659 157.536 300.926C156.578 297.158 160.008 293.19 163.796 291.986C165.696 291.421 167.726 291.468 169.598 292.121C171.47 292.774 173.09 294 174.23 295.625C168.513 289.193 167.083 280.024 168.513 271.673C169.497 266.292 172.328 261.427 176.517 257.92C178.369 256.399 180.535 255.309 182.858 254.729C185.182 254.149 187.605 254.094 189.952 254.568C194.654 255.585 197.799 259.066 200.429 263.005" fill="#B5845B"/>
<path d="M169.17 246.703C165.74 260.455 156.306 287.588 152.948 301.341L137.497 301.126C137.125 298.103 136.782 296.47 138.783 294.135C140.784 291.8 145.401 292.43 147.888 294.006L153.376 252.218" fill="#B5845B"/>
<path d="M178.26 191.964L187.479 175.547C187.547 175.424 187.581 175.285 187.576 175.145C187.571 175.004 187.528 174.868 187.452 174.75C187.375 174.632 187.268 174.537 187.142 174.476C187.016 174.414 186.876 174.389 186.736 174.401C181.662 174.831 177.56 176.22 172.286 176.45" fill="#B5845B"/>
<path d="M175.259 179.214C178.246 178.713 180.733 178.068 183.163 177.581C183.189 177.576 183.215 177.578 183.24 177.588C183.265 177.597 183.286 177.613 183.303 177.633C183.319 177.654 183.329 177.679 183.332 177.705C183.335 177.731 183.331 177.758 183.32 177.782C181.891 180.26 180.033 183.512 178.117 186.377" fill="#A67853"/>
<path d="M157.736 207.35C155.806 217.378 153.862 227.707 155.049 237.893C159.841 227.459 166.811 218.177 175.488 210.674C178.346 208.238 181.205 205.975 184.263 203.754C184.341 203.693 184.395 203.606 184.414 203.509C184.433 203.412 184.417 203.311 184.369 203.225C184.321 203.138 184.243 203.072 184.151 203.038C184.058 203.003 183.956 203.004 183.863 203.038C175.736 206.214 166.969 207.398 158.293 206.491" fill="#EFB93F"/>
<path d="M162.724 178.627C162.457 177.603 161.945 176.66 161.233 175.879C160.521 175.098 159.63 174.502 158.636 174.143C157.764 173.785 157.378 175.203 158.236 175.576C158.99 175.861 159.664 176.325 160.199 176.929C160.734 177.533 161.115 178.258 161.309 179.043C161.481 179.959 162.896 179.573 162.738 178.641L162.724 178.627Z" fill="#886244"/>
<path d="M157.393 180.017C156.406 180.59 155.349 180.59 155.02 180.017C154.691 179.444 155.206 178.584 156.192 177.997C157.178 177.409 158.236 177.424 158.579 177.997C158.922 178.57 158.379 179.458 157.393 180.017Z" fill="#353535"/>
<path d="M132.051 172.367C131.437 172.771 130.933 173.321 130.583 173.969C130.234 174.616 130.051 175.341 130.05 176.077C132.984 175.915 135.743 174.627 137.754 172.481C135.768 171.908 133.738 171.407 132.051 172.367Z" fill="#353535"/>
<path d="M52.1828 286.743C51.5081 286.743 50.8609 287.012 50.3838 287.49C49.9067 287.968 49.6387 288.617 49.6387 289.293V299.407C49.6387 300.083 49.9067 300.732 50.3838 301.21C50.8609 301.688 51.5081 301.957 52.1828 301.957C52.8551 301.953 53.4985 301.683 53.9725 301.205C54.4466 300.727 54.7127 300.081 54.7126 299.407V289.25C54.7014 288.584 54.4304 287.948 53.9576 287.48C53.4848 287.011 52.8477 286.747 52.1828 286.743Z" fill="#3A3A3A"/>
<path d="M24.183 286.743C23.5083 286.743 22.8612 287.012 22.3841 287.49C21.907 287.968 21.6389 288.617 21.6389 289.293V299.407C21.6389 300.083 21.907 300.732 22.3841 301.21C22.8612 301.688 23.5083 301.957 24.183 301.957C24.8553 301.953 25.4988 301.683 25.9728 301.205C26.4468 300.727 26.7129 300.081 26.7129 299.407V289.25C26.7017 288.584 26.4307 287.948 25.9578 287.48C25.485 287.011 24.848 286.747 24.183 286.743Z" fill="#3A3A3A"/>
<path d="M45.8796 249.525V181.721" stroke="#3A3A3A" stroke-miterlimit="10"/>
<path d="M29.2856 249.525V181.721" stroke="#3A3A3A" stroke-miterlimit="10"/>
<path d="M48.8669 183.082H27.6562C27.3866 183.084 27.1193 183.033 26.8697 182.931C26.6201 182.828 26.3931 182.678 26.2018 182.487C26.0104 182.297 25.8586 182.071 25.755 181.821C25.6514 181.572 25.5981 181.304 25.5981 181.034C25.5962 180.762 25.6481 180.493 25.7509 180.242C25.8536 179.991 26.0052 179.763 26.1967 179.571C26.3882 179.379 26.6158 179.227 26.8664 179.124C27.1169 179.021 27.3854 178.969 27.6562 178.971H48.8669C49.1377 178.969 49.4062 179.021 49.6567 179.124C49.9073 179.227 50.135 179.379 50.3265 179.571C50.518 179.763 50.6695 179.991 50.7723 180.242C50.875 180.493 50.927 180.762 50.9251 181.034C50.9251 181.304 50.8717 181.572 50.7681 181.821C50.6645 182.071 50.5127 182.297 50.3214 182.487C50.1301 182.678 49.9031 182.828 49.6534 182.931C49.4038 183.033 49.1365 183.084 48.8669 183.082Z" fill="#EFB93F"/>
<path d="M52.826 207.407H22.7681C15.5137 207.407 9.63293 213.302 9.63293 220.573V283.348C9.63293 290.619 15.5137 296.513 22.7681 296.513H52.826C60.0804 296.513 65.9612 290.619 65.9612 283.348V220.573C65.9612 213.302 60.0804 207.407 52.826 207.407Z" fill="#EFB93F"/>
<path opacity="0.16" d="M54.2125 296.542C57.407 296.471 60.4428 295.132 62.6535 292.819C64.8642 290.507 66.0692 287.41 66.0041 284.208V219.742C66.0382 218.156 65.7603 216.579 65.1861 215.1C64.612 213.622 63.7528 212.272 62.6578 211.126C61.5628 209.981 60.2533 209.063 58.8042 208.425C57.3552 207.787 55.7949 207.441 54.2125 207.407H52.5402C52.4259 235.959 53.4264 261.731 50.239 276.285C49.4159 280.724 47.5179 284.893 44.7118 288.425C41.9057 291.957 38.2773 294.744 34.1453 296.542H54.2125Z" fill="#8C5900"/>
<path d="M55.5845 283.993H19.6951C19.0478 283.993 18.5231 284.519 18.5231 285.167V285.182C18.5231 285.83 19.0478 286.356 19.6951 286.356H55.5845C56.2318 286.356 56.7565 285.83 56.7565 285.182V285.167C56.7565 284.519 56.2318 283.993 55.5845 283.993Z" fill="#F7DBA4"/>
<path d="M55.5845 275.469H19.6951C19.0478 275.469 18.5231 275.995 18.5231 276.644V276.658C18.5231 277.307 19.0478 277.833 19.6951 277.833H55.5845C56.2318 277.833 56.7565 277.307 56.7565 276.658V276.644C56.7565 275.995 56.2318 275.469 55.5845 275.469Z" fill="#F7DBA4"/>
<path d="M55.5845 266.458H19.6951C19.0478 266.458 18.5231 266.984 18.5231 267.633V267.647C18.5231 268.296 19.0478 268.822 19.6951 268.822H55.5845C56.2318 268.822 56.7565 268.296 56.7565 267.647V267.633C56.7565 266.984 56.2318 266.458 55.5845 266.458Z" fill="#F7DBA4"/>
<path d="M8.28937 239.239C6.58852 239.053 6.74574 236.618 8.28937 236.274C9.17553 236.059 8.80391 234.684 7.90346 234.841C7.2242 235.014 6.62654 235.419 6.21409 235.987C5.80163 236.554 5.60037 237.249 5.64519 237.95C5.69561 238.643 5.98848 239.296 6.47219 239.794C6.9559 240.292 7.59942 240.603 8.28937 240.672C9.18982 240.772 9.18982 239.339 8.28937 239.239Z" fill="#38303B"/>
<path d="M9.56145 255.227C7.01732 255.069 3.8443 254.911 2.27208 252.505C1.05719 250.642 1.40021 248.006 1.58602 245.915C2.05769 240.342 2.45789 232.879 9.61862 232.377C10.5334 232.305 10.5334 230.873 9.61862 230.945C1.54314 231.518 0.714157 239.411 0.156735 245.915C-0.0862444 248.68 -0.300638 251.788 1.58602 254.052C3.47268 256.315 6.77434 256.487 9.50428 256.659C10.4333 256.659 10.419 255.227 9.50428 255.227H9.56145Z" fill="#38303B"/>
<path d="M35.4173 206.906C29.2083 219.321 19.6518 229.743 7.83208 236.99C7.67258 237.089 7.5581 237.246 7.51329 237.428C7.46848 237.611 7.49693 237.803 7.59251 237.965C7.6881 238.127 7.84317 238.244 8.02432 238.292C8.20547 238.34 8.39821 238.315 8.56102 238.222C20.5894 230.856 30.3188 220.261 36.6465 207.637C37.061 206.82 35.8318 206.089 35.4173 206.92V206.906Z" fill="#38303B"/>
<path d="M64.1603 113.717C62.5242 113.697 60.9082 113.353 59.4047 112.706C57.9012 112.059 56.5397 111.121 55.3981 109.947C54.2564 108.772 53.3571 107.383 52.7514 105.859C52.1458 104.336 51.8457 102.708 51.8684 101.068C52.1114 96.7701 54.5412 92.9881 54.727 88.762C54.9414 83.9916 52.2543 79.393 52.7402 74.6512C53.6693 65.712 64.3604 61.7581 69.8917 54.6812C73.4506 50.0826 74.737 44.1804 77.0381 38.837C79.6775 32.1821 84.4357 26.5871 90.5735 22.9211C96.7909 19.4829 104.781 18.8956 110.984 22.3767C119.174 26.961 122.547 37.5906 120.989 46.8594C119.431 56.1281 113.842 64.2221 107.725 71.342" fill="#38303B"/>
<path d="M142.457 138.959C144.215 141.022 150.775 149.99 151.833 152.44C152.89 154.889 153.719 157.984 155.549 160.219C155.906 160.648 156.821 160.319 156.978 159.732C157.157 158.679 157.157 157.604 156.978 156.551C156.892 155.964 157.793 155.491 158.293 155.849C158.652 156.131 158.957 156.476 159.194 156.866C160.623 159.144 162.138 160.734 163.582 163.012C164.248 164.172 165.054 165.245 165.983 166.207C166.383 166.579 166.697 166.121 166.612 165.591C166.526 165.061 165.897 163.456 166.04 163.642C166.183 163.829 167.241 163.757 167.098 162.926C166.325 159.425 164.962 156.083 163.067 153.041C159.508 147.698 151.232 141.294 147.702 135.593" fill="#F4966B"/>
<path d="M106.682 94.9937C115.598 112.066 127.442 127.433 141.671 140.392C143.257 141.824 144.415 143.056 146.116 142.67C148.503 142.125 152.304 140.148 150.761 137.756C143.443 126.482 133.709 113.66 130.208 101.942C128.845 96.5983 127.179 91.337 125.22 86.1834C122.99 80.9258 119.602 74.9807 114.486 71.5139" fill="#EFB93F"/>
<path d="M104.824 67.5743C103.623 66.987 102.179 67.8322 101.179 68.706C90.2448 78.2899 89.4587 93.7617 89.4158 107.586L89.2157 168.499C89.1883 168.902 89.2418 169.306 89.3729 169.688C89.9303 170.977 91.9028 171.006 93.4178 170.82L118.773 167.611C120.008 167.546 121.214 167.208 122.304 166.622C124.248 165.376 124.533 162.883 124.619 160.72C125.593 137.209 124.862 113.657 122.432 90.2519C121.918 85.3382 121.303 80.3099 118.945 75.9262C117.78 73.5834 116.059 71.5629 113.933 70.0418C111.808 68.5208 109.342 67.5456 106.753 67.2018" fill="#E5622C"/>
<path d="M109.554 292.244C109.869 289.909 110.183 287.588 110.483 285.268C110.686 284.377 110.656 283.45 110.398 282.574C109.812 281.142 108.225 281.013 106.896 281.027C106.642 280.998 106.385 281.02 106.14 281.091C105.894 281.163 105.666 281.282 105.467 281.443C105.052 282.035 104.869 282.759 104.952 283.477C104.952 286.7 104.952 289.938 104.952 293.161" fill="#F7B094"/>
<path d="M126.906 301.226L115.472 301.599C114.243 301.599 104.452 301.398 103.051 301.427C102.582 301.492 102.106 301.374 101.722 301.097C101.56 300.851 101.453 300.572 101.409 300.28C101.365 299.989 101.384 299.691 101.465 299.407C101.581 297.111 101.99 294.838 102.68 292.645C102.837 292.144 103.066 291.6 103.537 291.442C103.762 291.41 103.992 291.426 104.211 291.487C104.43 291.549 104.634 291.655 104.809 291.8C105.292 292.226 105.888 292.503 106.525 292.597C107.161 292.692 107.812 292.599 108.397 292.33C108.868 292.23 110.684 291.614 111.127 291.428C111.629 291.27 112.168 291.27 112.67 291.428C117.148 292.349 121.477 293.887 125.534 295.998C126.493 296.422 127.315 297.107 127.907 297.974C128.179 298.423 128.291 298.952 128.224 299.473C128.156 299.994 127.913 300.476 127.535 300.84" fill="#E5622C"/>
<path d="M81.7263 292.015L82.884 285.081C83.12 284.199 83.12 283.27 82.884 282.388C82.3552 280.956 80.783 280.755 79.4537 280.712C79.2037 280.668 78.9474 280.678 78.7012 280.739C78.455 280.801 78.2245 280.914 78.0244 281.07C77.5853 281.642 77.3716 282.356 77.4241 283.076L77.1669 292.76" fill="#F7B094"/>
<path d="M98.7205 301.642L87.2862 301.542C86.057 301.542 76.2807 300.926 74.8657 300.883C74.3986 300.927 73.9324 300.788 73.565 300.496C73.3975 300.263 73.2805 299.997 73.2214 299.716C73.1623 299.434 73.1625 299.144 73.222 298.863C73.4179 296.572 73.8981 294.315 74.6513 292.144C74.8228 291.657 75.0801 291.112 75.5517 290.984C75.7789 290.957 76.0092 290.98 76.2264 291.052C76.4436 291.124 76.6426 291.242 76.8095 291.399C77.2806 291.839 77.8664 292.135 78.4989 292.254C79.1313 292.373 79.7846 292.31 80.3827 292.072C80.8544 291.972 82.6839 291.428 83.127 291.256C83.6345 291.099 84.1774 291.099 84.6849 291.256C89.1293 292.356 93.4005 294.068 97.377 296.341C98.3322 296.794 99.1435 297.503 99.721 298.39C99.9812 298.852 100.074 299.39 99.9824 299.912C99.8912 300.435 99.622 300.909 99.2208 301.255" fill="#E5622C"/>
<path d="M92.8889 176.536C95.5903 210.53 97.2625 246.058 102.894 279.681C103.337 282.345 103.88 286.843 105.081 287.245C106.665 287.661 108.307 287.811 109.94 287.689C110.595 287.679 111.221 287.42 111.694 286.966C112.166 286.511 112.448 285.894 112.484 285.239C114.771 236.016 121.303 186.836 117.087 137.842C116.944 136.123 96.4336 135.808 96.4336 135.808" fill="#38303B"/>
<path d="M72.6645 162.009C72.4358 196.104 72.593 243.909 75.323 277.818C75.5374 280.511 75.6803 285.096 76.8523 285.54C78.3944 286.092 80.0174 286.382 81.6547 286.399C82.3061 286.45 82.9522 286.25 83.4618 285.84C83.9715 285.43 84.3065 284.841 84.399 284.193C90.9165 235.343 103.351 187.538 103.38 138.372C103.38 136.638 81.2831 133.931 81.2831 133.931" fill="#48414C"/>
<g opacity="0.47">
<path opacity="0.47" d="M75.0085 269.395C72.8503 236.56 72.7217 193.726 72.9504 162.496L76.4235 151.15C76.6164 151.176 76.8073 151.214 76.9952 151.265L80.7543 160.047C79.0105 193.741 77.262 227.387 75.5088 260.986C75.3516 263.793 75.2086 266.601 75.0085 269.395Z" fill="#38303B"/>
</g>
<path d="M69.6201 151.666L70.5777 154.016C70.9351 154.889 72.7503 155.534 74.8656 155.563C87.9769 155.696 101.084 155.749 114.185 155.72C115.187 155.774 116.19 155.668 117.158 155.405C117.392 155.325 117.604 155.193 117.78 155.02C117.955 154.846 118.09 154.635 118.173 154.402C118.645 153.371 118.173 150.921 118.63 149.904" fill="#F7DBA4"/>
<path d="M73.1648 152.454C70.3062 152.454 68.3195 149.589 68.0337 146.81C67.7478 144.031 71.1495 138.3 70.8923 135.349C70.4778 131.281 68.1766 95.2373 77.1668 76.0552C79.2107 71.7574 82.5124 67.3595 87.2719 66.3567C89.8296 66.0347 92.4206 66.0926 94.9615 66.5286C100.307 66.987 106.024 66.4283 110.684 69.0069C118.688 73.4049 119.66 84.1921 119.645 93.2317C119.645 100.786 119.645 108.331 119.645 115.866C119.645 125.264 122.504 134.017 119.274 141.409C118.316 143.586 121.06 150.105 119.431 151.852C117.801 153.6 113.042 152.827 110.355 152.784L77.1668 152.354" fill="#EFB93F"/>
<path d="M90.3305 170.046C92.6174 170.59 93.1891 169.172 92.9604 167.582L94.3183 97.4148C94.5755 90.2519 94.6756 79.8515 92.8032 73.0611C91.8456 69.5226 88.5153 65.0244 92.8032 66.0988C84.5133 66.2134 79.225 66.5429 75.7661 72.4021C72.3072 78.2613 70.9065 85.6677 70.5492 92.4581C69.4058 114.076 66.147 136.194 65.0036 157.826C64.8749 160.333 64.8035 163.098 66.3471 165.075C68.0765 167.296 71.1924 167.725 73.9795 167.94C78.0244 168.313 87.3862 169.358 90.3305 170.046Z" fill="#E5622C"/>
<path d="M56.2134 142.985C54.6759 148.246 53.4776 153.6 52.6259 159.015C52.4973 161.88 52.7546 164.874 51.9399 167.611C51.8777 167.728 51.785 167.825 51.6717 167.893C51.5584 167.961 51.4288 167.997 51.2967 167.997C51.1646 167.997 51.0349 167.961 50.9217 167.893C50.8084 167.825 50.7157 167.728 50.6535 167.611C50.1774 166.71 49.8355 165.745 49.6387 164.746C49.602 164.611 49.5262 164.491 49.4211 164.4C49.3159 164.309 49.1862 164.251 49.0483 164.234C48.9104 164.217 48.7706 164.242 48.6466 164.305C48.5227 164.368 48.4203 164.466 48.3524 164.588C48.1335 164.988 47.9883 165.425 47.9236 165.877C47.4233 168.528 46.6801 170.576 46.1941 173.241C45.989 174.565 45.6539 175.865 45.1936 177.123C44.9649 177.61 44.579 177.309 44.479 176.779C44.3789 176.249 44.4075 174.53 44.3504 174.745C44.2074 175.246 43.3927 175.318 43.2641 174.487C42.8154 170.926 42.9117 167.317 43.5499 163.786C44.8506 157.583 49.7102 148.472 50.8679 141.824" fill="#F4966B"/>
<path d="M53.5836 151.236C53.7223 151.288 53.87 151.311 54.0178 151.305C54.1657 151.298 54.3107 151.261 54.4441 151.197C54.5775 151.133 54.6967 151.042 54.7944 150.931C54.8921 150.82 54.9664 150.69 55.0128 150.549C58.8719 139.088 63.1169 129.705 69.1342 121.64C73.4221 115.809 75.5803 112.256 79.7109 105.881C83.8416 99.5063 88.9299 90.4095 89.5302 80.9115C89.9812 76.9869 89.1109 73.0237 87.0575 69.6515C84.1989 65.4828 78.4818 67.3451 75.2802 71.0841C71.3427 75.5905 68.1222 80.6786 65.7325 86.1691C57.7571 104.105 51.654 126.281 48.3952 148.171C48.3238 148.686 48.8955 149.288 49.3957 149.46L53.5836 151.236Z" fill="#EFB93F"/>
<path d="M93.3464 67.3308C94.1325 63.5918 96.2049 55.8702 96.8052 53.3632C97.0244 52.3318 97.2531 51.3003 97.4913 50.2689C97.5337 50.0385 97.6319 49.8221 97.7771 49.6386C97.8997 49.5302 98.0568 49.4692 98.2202 49.4666C99.7353 49.3664 100.936 50.5984 102.294 51.2717C103.937 52.0739 105.838 52.0309 107.511 52.7043C107.623 52.7399 107.725 52.8011 107.809 52.8832C107.894 52.9652 107.958 53.0658 107.997 53.177C108.026 53.3428 108.026 53.5126 107.997 53.6784C107.568 56.7298 107.339 64.9814 107.182 68.7634C107.082 70.8979 103.308 72.2445 99.4351 71.2847C94.7471 70.1959 93.0462 68.7634 93.3464 67.3308Z" fill="#F4966B"/>
<path d="M97.1769 52.432C97.3114 52.3268 97.4779 52.2712 97.6485 52.2745C99.2636 52.2028 100.593 53.4635 102.051 54.1511C103.837 54.982 105.881 54.9677 107.682 55.7413C107.802 55.7709 107.913 55.8295 108.005 55.9119C108.097 55.9943 108.168 56.098 108.211 56.214C108.247 56.3793 108.247 56.5502 108.211 56.7154C107.982 58.4059 107.768 60.0963 107.539 61.8011C107.539 63.3912 107.453 64.1218 105.581 63.821C103.023 63.4055 97.0054 60.3971 95.8762 57.6466L96.1907 56.214C96.4051 55.1683 96.6338 54.1368 96.891 53.1054C96.9225 52.8588 97.0214 52.6257 97.1769 52.432Z" fill="#ED825D"/>
<path d="M93.3463 47.5183C91.1309 47.4037 89.0585 46.3436 88.5153 44.6532C87.9722 42.9628 89.5301 41.0001 91.7598 40.7136" fill="#F4966B"/>
<path d="M91.3168 46.1144C91.8885 54.7098 97.3912 56.9017 102.965 60.082C104.177 60.7012 105.488 61.099 106.839 61.2567C109.697 61.5289 111.441 59.1508 112.456 57.0306C114.188 53.3775 115.479 49.53 116.301 45.57C116.994 42.8246 116.994 39.9493 116.301 37.2038C115.85 35.6877 115.063 34.2934 113.998 33.1251C112.934 31.9567 111.62 31.0444 110.155 30.4564C108.234 29.8492 106.204 29.673 104.208 29.9404C102.213 30.2078 100.3 30.9122 98.6061 32.0036C93.8037 34.9404 90.645 39.8684 91.3025 45.0543" fill="#F4966B"/>
<path d="M116.315 45.3695C116.007 46.5467 115.877 47.7636 115.929 48.9795C115.939 49.7821 116.216 50.5584 116.715 51.1857C116.847 51.3321 116.947 51.5041 117.009 51.691C117.072 51.878 117.095 52.0758 117.077 52.2721C117.06 52.4684 117.002 52.659 116.908 52.832C116.814 53.0049 116.685 53.1565 116.529 53.2773C116.172 53.5171 115.743 53.6282 115.314 53.5924C114.995 53.6025 114.68 53.5182 114.408 53.3501C114.136 53.182 113.92 52.9374 113.785 52.6469" fill="#F4966B"/>
<path d="M86.7288 38.6794C92.7331 39.2105 98.7833 38.5832 104.552 36.8314C107.128 36.2434 109.578 35.1952 111.784 33.737C112.885 32.9204 113.828 31.6884 113.213 30.4421C112.599 29.1958 110.584 28.4795 108.926 28.2359C107.682 28.0497 106.439 27.9208 105.209 27.8492C103.163 27.6996 101.106 27.859 99.1064 28.3219C97.0277 28.9721 95.0609 29.9384 93.2749 31.187C91.4454 32.3474 89.5445 33.6367 88.987 35.4847" fill="#38303B"/>
<path d="M108.511 39.1378C108.411 39.1378 108.511 39.324 108.625 39.3527C108.747 39.3885 108.876 39.3885 108.997 39.3527C110.541 39.1078 112.122 39.3428 113.528 40.026C113.734 40.1413 113.956 40.2281 114.185 40.2839C114.428 40.2839 114.7 40.2839 114.729 40.0976C114.755 40.0284 114.755 39.9519 114.729 39.8827C114.484 39.5724 114.164 39.3306 113.8 39.1808C112.511 38.5787 111.064 38.4031 109.669 38.6794C109.218 38.7361 108.797 38.937 108.468 39.2524" fill="#41423E"/>
<path d="M100.164 47.4897C100 48.4231 100.208 49.3837 100.742 50.1656C101.276 50.9475 102.095 51.4886 103.023 51.6728C103.461 51.7994 103.92 51.838 104.373 51.7861C104.826 51.7343 105.265 51.5931 105.663 51.3708C106.062 51.1484 106.412 50.8492 106.695 50.4905C106.978 50.1317 107.187 49.7205 107.31 49.2804C107.471 48.3457 107.262 47.3851 106.729 46.6018C106.195 45.8185 105.379 45.2738 104.452 45.083C104.013 44.9566 103.553 44.9187 103.099 44.9714C102.645 45.0242 102.206 45.1666 101.807 45.3903C101.409 45.6141 101.058 45.9149 100.776 46.2752C100.494 46.6355 100.286 47.0483 100.164 47.4897Z" fill="#ED825D"/>
<path d="M110.469 43.7936C110.326 44.7821 110.684 45.656 111.27 45.7563C111.856 45.8565 112.427 45.1546 112.585 44.1661C112.742 43.1776 112.37 42.3038 111.784 42.2035C111.198 42.1032 110.626 42.8195 110.469 43.7936Z" fill="#353535"/>
<path d="M87.7436 38.751C97.6771 38.8656 108.654 38.5791 115.615 30.3991C116.215 29.6972 115.214 28.68 114.614 29.382C107.897 37.2611 97.3055 37.433 87.7436 37.3184C87.554 37.3184 87.3723 37.3939 87.2382 37.5282C87.1042 37.6626 87.0289 37.8448 87.0289 38.0347C87.0289 38.2247 87.1042 38.4069 87.2382 38.5412C87.3723 38.6755 87.554 38.751 87.7436 38.751Z" fill="#423F44"/>
<path d="M91.4597 66.2993C92.4316 70.1529 96.2907 72.3304 100.035 72.7459C101.827 73.0154 103.658 72.7034 105.26 71.8553C106.862 71.0073 108.152 69.6678 108.94 68.0327C109.726 66.6002 107.511 65.3538 106.782 66.7721C106.289 67.89 105.465 68.8291 104.422 69.4621C103.379 70.095 102.167 70.3912 100.95 70.3105C98.0916 70.1959 94.6327 68.6774 93.8038 65.626C93.4179 64.0645 90.9452 64.7235 91.3883 66.2993H91.4597Z" fill="#F7DBA4"/>
</svg>
